<svg width="16" height="16" viewBox="0 0 16 16" fill="none" xmlns="http://www.w3.org/2000/svg">
<g clip-path="url(#clip0_1_642)">
<path fill-rule="evenodd" clip-rule="evenodd" d="M2.68507 3.0028C3.09773 2.96692 3.46134 3.27236 3.49723 3.68501L4.33838 13.3583C4.39455 14.0042 4.93529 14.5 5.58368 14.5H10.4164C11.0648 14.5 11.6055 14.0042 11.6617 13.3583L12.5029 3.68501C12.5387 3.27236 12.9024 2.96692 13.315 3.0028C13.7277 3.03869 14.0331 3.4023 13.9972 3.81496L13.1561 13.4882C13.0325 14.9093 11.8429 16 10.4164 16H5.58368C4.15723 16 2.96759 14.9093 2.84402 13.4882L2.00286 3.81496C1.96698 3.4023 2.27242 3.03869 2.68507 3.0028Z" fill="#1F2933"/>
<path fill-rule="evenodd" clip-rule="evenodd" d="M7.75 1.5C7.05964 1.5 6.5 2.05964 6.5 2.75V3.5C6.5 3.91421 6.16421 4.25 5.75 4.25C5.33579 4.25 5 3.91421 5 3.5V2.75C5 1.23122 6.23122 0 7.75 0H8.25C9.76878 0 11 1.23122 11 2.75V3.5C11 3.91421 10.6642 4.25 10.25 4.25C9.83579 4.25 9.5 3.91421 9.5 3.5V2.75C9.5 2.05964 8.94036 1.5 8.25 1.5H7.75Z" fill="#1F2933"/>
<path fill-rule="evenodd" clip-rule="evenodd" d="M0.25 3.75C0.25 3.33579 0.585786 3 1 3H15C15.4142 3 15.75 3.33579 15.75 3.75C15.75 4.16421 15.4142 4.5 15 4.5H1C0.585786 4.5 0.25 4.16421 0.25 3.75Z" fill="#1F2933"/>
</g>
<defs>
<clipPath id="clip0_1_642">
<rect width="16" height="16" fill="white"/>
</clipPath>
</defs>
</svg>
