<svg width="16" height="16" viewBox="0 0 16 16" fill="none" xmlns="http://www.w3.org/2000/svg">
<g clip-path="url(#clip0_301_4473)">
<path fill-rule="evenodd" clip-rule="evenodd" d="M15.25 0C15.6642 0 16 0.335786 16 0.75V15.25C16 15.6642 15.6642 16 15.25 16C14.8358 16 14.5 15.6642 14.5 15.25V0.75C14.5 0.335786 14.8358 0 15.25 0Z" fill="#1F2933"/>
<path fill-rule="evenodd" clip-rule="evenodd" d="M0 8C0 7.58579 0.335786 7.25 0.75 7.25H11.25C11.6642 7.25 12 7.58579 12 8C12 8.41421 11.6642 8.75 11.25 8.75H0.75C0.335786 8.75 0 8.41421 0 8Z" fill="#1F2933"/>
<path fill-rule="evenodd" clip-rule="evenodd" d="M4.7996 4.23967C5.08145 4.5432 5.06387 5.01775 4.76034 5.2996L1.85221 8L4.76034 10.7004C5.06387 10.9823 5.08145 11.4568 4.7996 11.7603C4.51774 12.0639 4.04319 12.0815 3.73966 11.7996L0.239662 8.5496C0.0868364 8.40769 0 8.20855 0 8C0 7.79145 0.0868364 7.59232 0.239662 7.45041L3.73966 4.20041C4.04319 3.91856 4.51774 3.93613 4.7996 4.23967Z" fill="#1F2933"/>
</g>
<defs>
<clipPath id="clip0_301_4473">
<rect width="16" height="16" fill="white"/>
</clipPath>
</defs>
</svg>
