<svg width="16" height="16" viewBox="0 0 16 16" fill="none" xmlns="http://www.w3.org/2000/svg">
  <g clip-path="url(#clip0_301_4474)">
    <path fill-rule="evenodd" clip-rule="evenodd" d="M0.75 0C1.16421 0 1.5 0.335786 1.5 0.75V15.25C1.5 15.6642 1.16421 16 0.75 16C0.335786 16 0 15.6642 0 15.25V0.75C0 0.335786 0.335786 0 0.75 0Z" fill="#FFFFFF" />
    <path fill-rule="evenodd" clip-rule="evenodd" d="M4 8C4 7.58579 4.33579 7.25 4.75 7.25H15.25C15.6642 7.25 16 7.58579 16 8C16 8.41421 15.6642 8.75 15.25 8.75H4.75C4.33579 8.75 4 8.41421 4 8Z" fill="#FFFFFF" />
    <path fill-rule="evenodd" clip-rule="evenodd" d="M11.2004 4.23967C11.4823 3.93613 11.9568 3.91856 12.2603 4.20041L15.7603 7.45041C15.9132 7.59232 16 7.79145 16 8C16 8.20855 15.9132 8.40769 15.7603 8.5496L12.2603 11.7996C11.9568 12.0815 11.4823 12.0639 11.2004 11.7603C10.9186 11.4568 10.9361 10.9823 11.2397 10.7004L14.1478 8L11.2397 5.2996C10.9361 5.01775 10.9186 4.5432 11.2004 4.23967Z" fill="#FFFFFF" />
  </g>
  <defs>
    <clipPath id="clip0_301_4474">
      <rect width="16" height="16" fill="#FFFFFF" />
    </clipPath>
  </defs>
</svg>