<?xml version="1.0" encoding="UTF-8"?>
<svg id="Layer_2" data-name="Layer 2" xmlns="http://www.w3.org/2000/svg" xmlns:xlink="http://www.w3.org/1999/xlink" viewBox="0 0 16 16">
  <defs>
    <style>
      .cls-1 {
        fill: #4c10dd;
        fill-rule: evenodd;
      }

      .cls-2 {
        fill: none;
      }

      .cls-3 {
        clip-path: url(#clippath);
      }
    </style>
    <clipPath id="clippath">
      <rect class="cls-2" width="16" height="16"/>
    </clipPath>
  </defs>
  <g id="Layer_1-2" data-name="Layer 1">
    <g class="cls-3">
      <g>
        <path class="cls-1" d="M11.28,2.7c-.46.86-.78,2.05-.78,3.3s.32,2.44.78,3.3c.23.43.48.75.71.95.24.21.41.25.51.25s.27-.05.51-.25c.23-.2.48-.52.71-.95.46-.86.78-2.05.78-3.3s-.32-2.44-.78-3.3c-.23-.43-.48-.75-.71-.95-.24-.21-.41-.25-.51-.25s-.27.05-.51.25c-.23.2-.48.52-.71.95ZM11.01.62c.41-.35.91-.62,1.49-.62s1.09.27,1.49.62c.41.35.76.84,1.05,1.38.58,1.08.96,2.52.96,4s-.38,2.92-.96,4c-.29.54-.64,1.02-1.05,1.38-.41.35-.91.62-1.49.62s-1.09-.27-1.49-.62c-.41-.35-.76-.84-1.05-1.38-.58-1.08-.96-2.52-.96-4s.38-2.92.96-4c.29-.54.64-1.02,1.05-1.38Z"/>
        <path class="cls-1" d="M8.28,2.39c-2.26.47-4.61.97-5.1,1.09-.3.07-.73.34-1.09.81-.35.46-.59,1.05-.59,1.71s.24,1.25.59,1.71c.36.47.79.74,1.09.81.48.12,2.83.62,5.1,1.09,1.12.23,2.22.46,3.03.63l1.34.28-.15.73q-.15.73-.15.73l-1.34-.28c-.81-.17-1.91-.39-3.03-.63-2.24-.47-4.64-.97-5.15-1.1-.7-.18-1.4-.69-1.91-1.36-.52-.68-.91-1.59-.91-2.62s.38-1.94.91-2.62c.51-.67,1.21-1.18,1.91-1.36.52-.13,2.92-.63,5.15-1.1,1.13-.23,2.22-.46,3.03-.63L12.35.02s0,0,.15.73q.15.73.15.73l-1.34.28c-.81.17-1.91.39-3.03.63Z"/>
        <path class="cls-1" d="M2,13.25v-3.75h1.5v3.75c0,.69.56,1.25,1.25,1.25h.5c.69,0,1.25-.56,1.25-1.25v-2.75h1.5v2.75c0,1.52-1.23,2.75-2.75,2.75h-.5c-1.52,0-2.75-1.23-2.75-2.75Z"/>
      </g>
    </g>
  </g>
</svg>