<svg width="16" height="16" viewBox="0 0 16 16" fill="none" xmlns="http://www.w3.org/2000/svg">
<path fill-rule="evenodd" clip-rule="evenodd" d="M3.75 1.5C3.05964 1.5 2.5 2.05964 2.5 2.75V6.25C2.5 6.66421 2.16421 7 1.75 7C1.33579 7 1 6.66421 1 6.25V2.75C1 1.23122 2.23122 0 3.75 0H8.75C8.94891 0 9.13968 0.0790176 9.28033 0.21967L14.7803 5.71967C14.921 5.86032 15 6.05109 15 6.25V13.25C15 14.7688 13.7688 16 12.25 16H8.75C8.33579 16 8 15.6642 8 15.25C8 14.8358 8.33579 14.5 8.75 14.5H12.25C12.9404 14.5 13.5 13.9404 13.5 13.25V7H10.75C9.23122 7 8 5.76878 8 4.25V1.5H3.75ZM9.5 2.56066L12.4393 5.5H10.75C10.0596 5.5 9.5 4.94036 9.5 4.25V2.56066Z" fill="#4c10dd"/>
<path fill-rule="evenodd" clip-rule="evenodd" d="M1 11.75C1 9.67893 2.67893 8 4.75 8H5.25C5.66421 8 6 8.33579 6 8.75C6 9.16421 5.66421 9.5 5.25 9.5H4.75C3.50736 9.5 2.5 10.5074 2.5 11.75V12.25C2.5 13.4926 3.50736 14.5 4.75 14.5H5.25C5.66421 14.5 6 14.8358 6 15.25C6 15.6642 5.66421 16 5.25 16H4.75C2.67893 16 1 14.3211 1 12.25V11.75Z" fill="#4c10dd"/>
<path fill-rule="evenodd" clip-rule="evenodd" d="M0 12C0 11.5858 0.335786 11.25 0.75 11.25H4.25C4.66421 11.25 5 11.5858 5 12C5 12.4142 4.66421 12.75 4.25 12.75H0.75C0.335786 12.75 0 12.4142 0 12Z" fill="#4c10dd"/>
</svg>
