<svg width="16" height="16" viewBox="0 0 16 16" fill="none" xmlns="http://www.w3.org/2000/svg">
<g clip-path="url(#clip0_1_76)">
<path fill-rule="evenodd" clip-rule="evenodd" d="M2 6C2 2.68629 4.68629 0 8 0C11.3137 0 14 2.68629 14 6V7.83235L15.9286 11.9307C16.0379 12.163 16.0208 12.4351 15.8833 12.6519C15.7457 12.8687 15.5068 13 15.25 13H0.750001C0.493242 13 0.254328 12.8687 0.116752 12.6519C-0.0208246 12.4351 -0.0379398 12.163 0.0713874 11.9307L2 7.83235V6ZM8 1.5C5.51472 1.5 3.5 3.51472 3.5 6V8C3.5 8.11041 3.47563 8.21945 3.42862 8.31935L1.93184 11.5H14.0682L12.5714 8.31935C12.5244 8.21945 12.5 8.11041 12.5 8V6C12.5 3.51472 10.4853 1.5 8 1.5Z" fill="#1F2933"/>
<path fill-rule="evenodd" clip-rule="evenodd" d="M5.74998 12.495C5.74728 12.0831 5.41253 11.75 5 11.75C4.58579 11.75 4.25 12.0858 4.25 12.5H5C4.25 12.5 4.25 12.5 4.25 12.5L4.25 12.5017L4.25001 12.5037L4.25004 12.5085L4.25021 12.5211C4.25038 12.5308 4.25069 12.5432 4.25123 12.5581C4.25231 12.5879 4.25434 12.6278 4.25813 12.6764C4.26568 12.7734 4.28035 12.9064 4.30897 13.0639C4.36564 13.3755 4.48026 13.8009 4.71658 14.2341C4.95516 14.6715 5.32105 15.122 5.87454 15.4603C6.42972 15.7995 7.13143 16 8 16C8.86857 16 9.57028 15.7995 10.1255 15.4603C10.6789 15.122 11.0448 14.6715 11.2834 14.2341C11.5197 13.8009 11.6344 13.3755 11.691 13.0639C11.7197 12.9064 11.7343 12.7734 11.7419 12.6764C11.7457 12.6278 11.7477 12.5879 11.7488 12.5581C11.7493 12.5432 11.7496 12.5308 11.7498 12.5211L11.75 12.5085L11.75 12.5037L11.75 12.5017C11.75 12.5017 11.75 12.5 11 12.5H11.75C11.75 12.0858 11.4142 11.75 11 11.75C10.5875 11.75 10.2527 12.0831 10.25 12.495L10.2498 12.5036C10.2494 12.5141 10.2485 12.5333 10.2464 12.5599C10.2422 12.6134 10.2335 12.6951 10.2152 12.7955C10.1781 12.9995 10.1053 13.2616 9.96658 13.5159C9.83015 13.766 9.63355 14.003 9.34329 14.1804C9.05472 14.3567 8.63143 14.5 8 14.5C7.36857 14.5 6.94528 14.3567 6.65671 14.1804C6.36645 14.003 6.16984 13.766 6.03342 13.5159C5.89474 13.2616 5.82186 12.9995 5.78478 12.7955C5.76653 12.6951 5.75776 12.6134 5.75359 12.5599C5.75152 12.5333 5.75062 12.5141 5.75024 12.5036L5.74998 12.495Z" fill="#1F2933"/>
</g>
<defs>
<clipPath id="clip0_1_76">
<rect width="16" height="16" fill="white"/>
</clipPath>
</defs>
</svg>
