<svg width="16" height="16" viewBox="0 0 16 16" fill="none" xmlns="http://www.w3.org/2000/svg">
  <g clip-path="url(#clip0_117_63)">
    <path fill-rule="evenodd" clip-rule="evenodd" d="M2 2.75C2 1.23122 3.23122 0 4.75 0H11.25C12.7688 0 14 1.23122 14 2.75V15.25C14 15.5429 13.8295 15.809 13.5634 15.9314C13.2973 16.0538 12.9843 16.0101 12.7619 15.8194L8 11.7378L3.23809 15.8194C3.01571 16.0101 2.70271 16.0538 2.43661 15.9314C2.17051 15.809 2 15.5429 2 15.25V2.75ZM4.75 1.5C4.05964 1.5 3.5 2.05964 3.5 2.75V13.6193L7.51191 10.1806C7.79277 9.93981 8.20723 9.93981 8.48809 10.1806L12.5 13.6193V2.75C12.5 2.05964 11.9404 1.5 11.25 1.5H4.75Z" fill="#FFFFFF" />
  </g>
  <defs>
    <clipPath id="clip0_117_63">
      <rect width="16" height="16" fill="#FFFFFF" />
    </clipPath>
  </defs>
</svg>