<svg width="16" height="16" viewBox="0 0 16 16" fill="none" xmlns="http://www.w3.org/2000/svg">
  <g clip-path="url(#clip0_1_86)">
    <path fill-rule="evenodd" clip-rule="evenodd" d="M7.69321 0.065618C7.88838 -0.0218727 8.11162 -0.0218727 8.30679 0.065618L15.5568 3.31562C15.8265 3.4365 16 3.70448 16 4C16 4.29552 15.8265 4.5635 15.5568 4.68438L8.30679 7.93438C8.11162 8.02187 7.88838 8.02187 7.69321 7.93438L0.443208 4.68438C0.173541 4.5635 1.06229e-09 4.29552 1.06229e-09 4C1.06229e-09 3.70448 0.173541 3.4365 0.443208 3.31562L7.69321 0.065618ZM2.58349 4L8 6.42809L13.4165 4L8 1.57191L2.58349 4Z" fill="#FFFFFF" />
    <path fill-rule="evenodd" clip-rule="evenodd" d="M0.0656207 11.6931C0.235057 11.3152 0.678821 11.1461 1.05679 11.3156L8 14.428L14.9432 11.3156C15.3212 11.1461 15.7649 11.3152 15.9344 11.6931C16.1038 12.0711 15.9348 12.5149 15.5568 12.6843L8.30679 15.9343C8.11162 16.0218 7.88838 16.0218 7.69321 15.9343L0.443211 12.6843C0.0652371 12.5149 -0.103816 12.0711 0.0656207 11.6931Z" fill="#FFFFFF" />
    <path fill-rule="evenodd" clip-rule="evenodd" d="M15.25 3.25C15.6642 3.25 16 3.58579 16 4V12C16 12.4142 15.6642 12.75 15.25 12.75C14.8358 12.75 14.5 12.4142 14.5 12V4C14.5 3.58579 14.8358 3.25 15.25 3.25Z" fill="#FFFFFF" />
    <path fill-rule="evenodd" clip-rule="evenodd" d="M0.75 3.25C1.16421 3.25 1.5 3.58579 1.5 4V12C1.5 12.4142 1.16421 12.75 0.75 12.75C0.335786 12.75 1.06229e-09 12.4142 1.06229e-09 12V4C1.06229e-09 3.58579 0.335786 3.25 0.75 3.25Z" fill="#FFFFFF" />
    <path fill-rule="evenodd" clip-rule="evenodd" d="M8 6.75C8.41421 6.75 8.75 7.08579 8.75 7.5V15C8.75 15.4142 8.41421 15.75 8 15.75C7.58579 15.75 7.25 15.4142 7.25 15V7.5C7.25 7.08579 7.58579 6.75 8 6.75Z" fill="#FFFFFF" />
  </g>
  <defs>
    <clipPath id="clip0_1_86">
      <rect width="16" height="16" fill="#FFFFFF" />
    </clipPath>
  </defs>
</svg>