<svg width="16" height="16" viewBox="0 0 16 16" fill="none" xmlns="http://www.w3.org/2000/svg">
<path fill-rule="evenodd" clip-rule="evenodd" d="M1 2.75C1 1.23122 2.23122 0 3.75 0H12.25C13.7688 0 15 1.23122 15 2.75V13.25C15 14.7688 13.7688 16 12.25 16H3.75C2.23122 16 1 14.7688 1 13.25V2.75ZM2.5 4V13.25C2.5 13.9404 3.05964 14.5 3.75 14.5H12.25C12.9404 14.5 13.5 13.9404 13.5 13.25V4H2.5ZM13.475 2.5H2.525C2.64082 1.92944 3.14526 1.5 3.75 1.5H12.25C12.8547 1.5 13.3592 1.92944 13.475 2.5ZM4 6.25C4 5.83579 4.33579 5.5 4.75 5.5H5.25C5.66421 5.5 6 5.83579 6 6.25C6 6.66421 5.66421 7 5.25 7H4.75C4.33579 7 4 6.66421 4 6.25ZM7 6.25C7 5.83579 7.33579 5.5 7.75 5.5H8.25C8.66421 5.5 9 5.83579 9 6.25C9 6.66421 8.66421 7 8.25 7H7.75C7.33579 7 7 6.66421 7 6.25ZM10 6.25C10 5.83579 10.3358 5.5 10.75 5.5H11.25C11.6642 5.5 12 5.83579 12 6.25C12 6.66421 11.6642 7 11.25 7H10.75C10.3358 7 10 6.66421 10 6.25ZM4 9.25C4 8.83579 4.33579 8.5 4.75 8.5H5.25C5.66421 8.5 6 8.83579 6 9.25C6 9.66421 5.66421 10 5.25 10H4.75C4.33579 10 4 9.66421 4 9.25ZM7 9.25C7 8.83579 7.33579 8.5 7.75 8.5H8.25C8.66421 8.5 9 8.83579 9 9.25C9 9.66421 8.66421 10 8.25 10H7.75C7.33579 10 7 9.66421 7 9.25ZM10 9.25C10 8.83579 10.3358 8.5 10.75 8.5H11.25C11.6642 8.5 12 8.83579 12 9.25C12 9.66421 11.6642 10 11.25 10H10.75C10.3358 10 10 9.66421 10 9.25ZM4 12.25C4 11.8358 4.33579 11.5 4.75 11.5H5.25C5.66421 11.5 6 11.8358 6 12.25C6 12.6642 5.66421 13 5.25 13H4.75C4.33579 13 4 12.6642 4 12.25ZM7 12.25C7 11.8358 7.33579 11.5 7.75 11.5H8.25C8.66421 11.5 9 11.8358 9 12.25C9 12.6642 8.66421 13 8.25 13H7.75C7.33579 13 7 12.6642 7 12.25ZM10 12.25C10 11.8358 10.3358 11.5 10.75 11.5H11.25C11.6642 11.5 12 11.8358 12 12.25C12 12.6642 11.6642 13 11.25 13H10.75C10.3358 13 10 12.6642 10 12.25Z" fill="#141414"/>
</svg>
