<svg width="16" height="16" viewBox="0 0 16 16" fill="none" xmlns="http://www.w3.org/2000/svg">
<g clip-path="url(#clip0_1502_57)">
<path fill-rule="evenodd" clip-rule="evenodd" d="M0.75 0C1.16421 0 1.5 0.335786 1.5 0.75V14.5H15.25C15.6642 14.5 16 14.8358 16 15.25C16 15.6642 15.6642 16 15.25 16H0.75C0.335786 16 0 15.6642 0 15.25V0.75C0 0.335786 0.335786 0 0.75 0ZM12 1C12.2126 1 12.4152 1.09024 12.5575 1.24828L14.8075 3.74828C15.0846 4.05616 15.0596 4.53038 14.7517 4.80747C14.4438 5.08456 13.9696 5.05961 13.6925 4.75172L12.75 3.70447V4.5C12.75 6.22215 12.2501 8.34186 10.8504 10.0463C9.42843 11.7779 7.14301 13 3.75 13C3.33579 13 3 12.6642 3 12.25C3 11.8358 3.33579 11.5 3.75 11.5C6.74588 11.5 8.58546 10.4408 9.69123 9.09433C10.8193 7.72064 11.25 5.96535 11.25 4.5V3.70447L10.3075 4.75172C10.0304 5.05961 9.55616 5.08456 9.24828 4.80747C8.94039 4.53038 8.91543 4.05616 9.19253 3.74828L11.4425 1.24828C11.5848 1.09024 11.7874 1 12 1Z" fill="#1F2933"/>
</g>
<defs>
<clipPath id="clip0_1502_57">
<rect width="16" height="16" fill="white"/>
</clipPath>
</defs>
</svg>
