<?xml version="1.0" encoding="UTF-8"?>
<svg id="Layer_2" data-name="Layer 2" xmlns="http://www.w3.org/2000/svg" viewBox="0 0 16 16">
  <defs>
    <style>
      .cls-1 {
        fill: #4c10dd;
        fill-rule: evenodd;
      }
    </style>
  </defs>
  <g id="Layer_1-2" data-name="Layer 1">
    <path class="cls-1" d="M.75,0c.41,0,.75.34.75.75v13.75h13.75c.41,0,.75.34.75.75s-.34.75-.75.75H.75c-.41,0-.75-.34-.75-.75V.75c0-.41.34-.75.75-.75ZM12,1c.21,0,.42.09.56.25l2.25,2.5c.28.31.25.78-.06,1.06-.31.28-.78.25-1.06-.06l-.94-1.05v.8c0,1.72-.5,3.84-1.9,5.55-1.42,1.73-3.71,2.95-7.1,2.95-.41,0-.75-.34-.75-.75s.34-.75.75-.75c3,0,4.84-1.06,5.94-2.41,1.13-1.37,1.56-3.13,1.56-4.59v-.8l-.94,1.05c-.28.31-.75.33-1.06.06-.31-.28-.33-.75-.06-1.06l2.25-2.5c.14-.16.34-.25.56-.25Z"/>
  </g>
</svg>