<?xml version="1.0" encoding="UTF-8"?>
<svg id="Layer_2" data-name="Layer 2" xmlns="http://www.w3.org/2000/svg" viewBox="0 0 16 16">
  <defs>
    <style>
      .cls-1 {
        fill: #4c10dd;
        fill-rule: evenodd;
      }
    </style>
  </defs>
  <g id="Layer_1-2" data-name="Layer 1">
    <path class="cls-1" d="M13,7.5c.83,0,1.5-.67,1.5-1.5s-.67-1.5-1.5-1.5-1.5.67-1.5,1.5.67,1.5,1.5,1.5ZM13,9c1.66,0,3-1.34,3-3s-1.34-3-3-3-3,1.34-3,3,1.34,3,3,3Z"/>
    <path class="cls-1" d="M3,4.5c.83,0,1.5-.67,1.5-1.5s-.67-1.5-1.5-1.5-1.5.67-1.5,1.5.67,1.5,1.5,1.5ZM3,6c1.66,0,3-1.34,3-3S4.66,0,3,0,0,1.34,0,3s1.34,3,3,3Z"/>
    <path class="cls-1" d="M13,14.5c.83,0,1.5-.67,1.5-1.5s-.67-1.5-1.5-1.5-1.5.67-1.5,1.5.67,1.5,1.5,1.5ZM13,16c1.66,0,3-1.34,3-3s-1.34-3-3-3-3,1.34-3,3,1.34,3,3,3Z"/>
    <path class="cls-1" d="M5.61,6.25c0-.41.34-.75.75-.75h4.64v1.5h-4.64c-.41,0-.75-.34-.75-.75Z"/>
    <path class="cls-1" d="M8.25,13c0,.41-.34.75-.75.75h-2c-1.79,0-3.25-1.46-3.25-3.25v-5.5h1.5v5.5c0,.97.78,1.75,1.75,1.75h2c.41,0,.75.34.75.75Z"/>
  </g>
</svg>