<svg width="16" height="16" viewBox="0 0 16 16" fill="none" xmlns="http://www.w3.org/2000/svg">
<path fill-rule="evenodd" clip-rule="evenodd" d="M13 7.5C13.8284 7.5 14.5 6.82843 14.5 6C14.5 5.17157 13.8284 4.5 13 4.5C12.1716 4.5 11.5 5.17157 11.5 6C11.5 6.82843 12.1716 7.5 13 7.5ZM13 9C14.6569 9 16 7.65685 16 6C16 4.34315 14.6569 3 13 3C11.3431 3 10 4.34315 10 6C10 7.65685 11.3431 9 13 9Z" fill="#1F2933"/>
<path fill-rule="evenodd" clip-rule="evenodd" d="M3 4.5C3.82843 4.5 4.5 3.82843 4.5 3C4.5 2.17157 3.82843 1.5 3 1.5C2.17157 1.5 1.5 2.17157 1.5 3C1.5 3.82843 2.17157 4.5 3 4.5ZM3 6C4.65685 6 6 4.65685 6 3C6 1.34315 4.65685 0 3 0C1.34315 0 0 1.34315 0 3C0 4.65685 1.34315 6 3 6Z" fill="#1F2933"/>
<path fill-rule="evenodd" clip-rule="evenodd" d="M13 14.5C13.8284 14.5 14.5 13.8284 14.5 13C14.5 12.1716 13.8284 11.5 13 11.5C12.1716 11.5 11.5 12.1716 11.5 13C11.5 13.8284 12.1716 14.5 13 14.5ZM13 16C14.6569 16 16 14.6569 16 13C16 11.3431 14.6569 10 13 10C11.3431 10 10 11.3431 10 13C10 14.6569 11.3431 16 13 16Z" fill="#1F2933"/>
<path fill-rule="evenodd" clip-rule="evenodd" d="M5.61292 6.25C5.61292 5.83579 5.9487 5.5 6.36292 5.5H11V7H6.36292C5.9487 7 5.61292 6.66421 5.61292 6.25Z" fill="#1F2933"/>
<path fill-rule="evenodd" clip-rule="evenodd" d="M8.25 13C8.25 13.4142 7.91421 13.75 7.5 13.75H5.49999C3.70507 13.75 2.24999 12.2949 2.24999 10.5L2.24999 5L3.74999 5L3.74999 10.5C3.74999 11.4665 4.53349 12.25 5.49999 12.25H7.5C7.91421 12.25 8.25 12.5858 8.25 13Z" fill="#1F2933"/>
</svg>
