<svg width="16" height="16" viewBox="0 0 16 16" fill="none" xmlns="http://www.w3.org/2000/svg">
<path fill-rule="evenodd" clip-rule="evenodd" d="M3.75 3.5C3.05964 3.5 2.5 4.05964 2.5 4.75V13.25C2.5 13.9404 3.05964 14.5 3.75 14.5H12.25C12.9404 14.5 13.5 13.9404 13.5 13.25V4.75C13.5 4.05964 12.9404 3.5 12.25 3.5H11C10.5858 3.5 10.25 3.16421 10.25 2.75C10.25 2.33579 10.5858 2 11 2H12.25C13.7688 2 15 3.23122 15 4.75V13.25C15 14.7688 13.7688 16 12.25 16H3.75C2.23122 16 1 14.7688 1 13.25V4.75C1 3.23122 2.23122 2 3.75 2H5C5.41421 2 5.75 2.33579 5.75 2.75C5.75 3.16421 5.41421 3.5 5 3.5H3.75Z" fill="#1F2933"/>
<path fill-rule="evenodd" clip-rule="evenodd" d="M6 1.5C5.86193 1.5 5.75 1.61193 5.75 1.75V3.25C5.75 3.38807 5.86193 3.5 6 3.5H10C10.1381 3.5 10.25 3.38807 10.25 3.25V1.75C10.25 1.61193 10.1381 1.5 10 1.5H6ZM4.25 1.75C4.25 0.783502 5.0335 0 6 0H10C10.9665 0 11.75 0.783502 11.75 1.75V3.25C11.75 4.2165 10.9665 5 10 5H6C5.0335 5 4.25 4.2165 4.25 3.25V1.75Z" fill="#1F2933"/>
<path fill-rule="evenodd" clip-rule="evenodd" d="M5 8.25C5 7.83579 5.33579 7.5 5.75 7.5H10.25C10.6642 7.5 11 7.83579 11 8.25C11 8.66421 10.6642 9 10.25 9H5.75C5.33579 9 5 8.66421 5 8.25Z" fill="#1F2933"/>
<path fill-rule="evenodd" clip-rule="evenodd" d="M5 11.25C5 10.8358 5.33579 10.5 5.75 10.5H10.25C10.6642 10.5 11 10.8358 11 11.25C11 11.6642 10.6642 12 10.25 12H5.75C5.33579 12 5 11.6642 5 11.25Z" fill="#1F2933"/>
</svg>
