<svg width="16" height="16" viewBox="0 0 16 16" fill="none" xmlns="http://www.w3.org/2000/svg">
<g clip-path="url(#clip0_1105_55)">
<path fill-rule="evenodd" clip-rule="evenodd" d="M5.52587 2.5C5.54609 2.52269 5.57782 2.55352 5.6268 2.59212C5.79853 2.72746 6.0935 2.88214 6.52486 3.02592C7.37973 3.31088 8.60843 3.5 10 3.5C11.3916 3.5 12.6203 3.31088 13.4751 3.02592C13.9065 2.88214 14.2015 2.72746 14.3732 2.59212C14.4222 2.55351 14.4539 2.52269 14.4741 2.5C14.4539 2.47731 14.4222 2.44648 14.3732 2.40788C14.2015 2.27254 13.9065 2.11786 13.4751 1.97408C12.6203 1.68912 11.3916 1.5 10 1.5C8.60843 1.5 7.37973 1.68912 6.52486 1.97408C6.0935 2.11786 5.79853 2.27254 5.6268 2.40788C5.57782 2.44648 5.54609 2.47731 5.52587 2.5ZM14.5 4.23758C14.3249 4.31511 14.1402 4.38538 13.9495 4.44895C12.9042 4.79737 11.5079 5 10 5C8.49207 5 7.09577 4.79737 6.05052 4.44895C5.8598 4.38538 5.67514 4.31511 5.5 4.23758V5.25C5.5 5.66421 5.16421 6 4.75 6C4.33579 6 4 5.66421 4 5.25V2.5C4 1.93008 4.3472 1.50649 4.69834 1.22976C5.05794 0.946366 5.53181 0.723953 6.05052 0.551051C7.09577 0.202632 8.49207 0 10 0C11.5079 0 12.9042 0.202632 13.9495 0.551051C14.4682 0.723953 14.9421 0.946366 15.3017 1.22976C15.6528 1.50649 16 1.93008 16 2.5V6.5C16 7.00963 15.7201 7.40429 15.4156 7.67494C15.1098 7.94677 14.7083 8.16154 14.2735 8.33184C13.8879 8.48292 13.4527 8.29274 13.3017 7.90706C13.1506 7.52138 13.3408 7.08625 13.7265 6.93517C14.0712 6.80012 14.2948 6.66432 14.4191 6.55383C14.4664 6.51179 14.4895 6.48283 14.5 6.46718V4.23758Z" fill="#1F2933"/>
<path fill-rule="evenodd" clip-rule="evenodd" d="M1.52587 9.5C1.54609 9.52269 1.57782 9.55352 1.6268 9.59212C1.79853 9.72746 2.0935 9.88214 2.52486 10.0259C3.37973 10.3109 4.60843 10.5 6 10.5C7.39157 10.5 8.62027 10.3109 9.47514 10.0259C9.9065 9.88214 10.2015 9.72746 10.3732 9.59212C10.4222 9.55352 10.4539 9.52269 10.4741 9.5C10.4539 9.47731 10.4222 9.44648 10.3732 9.40788C10.2015 9.27254 9.9065 9.11786 9.47514 8.97408C8.62027 8.68912 7.39157 8.5 6 8.5C4.60843 8.5 3.37973 8.68912 2.52486 8.97408C2.0935 9.11786 1.79853 9.27254 1.6268 9.40788C1.57782 9.44648 1.54609 9.47731 1.52587 9.5ZM10.5 11.2376C10.3249 11.3151 10.1402 11.3854 9.94948 11.4489C8.90423 11.7974 7.50793 12 6 12C4.49207 12 3.09577 11.7974 2.05052 11.4489C1.8598 11.3854 1.67514 11.3151 1.5 11.2376V13.4671C1.51317 13.4872 1.54718 13.5294 1.6268 13.5921C1.79853 13.7275 2.0935 13.8821 2.52486 14.0259C3.37973 14.3109 4.60843 14.5 6 14.5C7.39157 14.5 8.62027 14.3109 9.47514 14.0259C9.9065 13.8821 10.2015 13.7275 10.3732 13.5921C10.4528 13.5294 10.4868 13.4872 10.5 13.4671V11.2376ZM12 9.5V13.5C12 14.0699 11.6528 14.4935 11.3017 14.7702C10.9421 15.0536 10.4682 15.276 9.94948 15.4489C8.90423 15.7974 7.50793 16 6 16C4.49207 16 3.09577 15.7974 2.05052 15.4489C1.53181 15.276 1.05794 15.0536 0.698341 14.7702C0.347196 14.4935 0 14.0699 0 13.5V9.5C0 8.93008 0.347196 8.50649 0.698341 8.22976C1.05794 7.94637 1.53181 7.72395 2.05052 7.55105C3.09577 7.20263 4.49207 7 6 7C7.50793 7 8.90423 7.20263 9.94948 7.55105C10.4682 7.72395 10.9421 7.94637 11.3017 8.22976C11.6528 8.50649 12 8.93008 12 9.5Z" fill="#1F2933"/>
</g>
<defs>
<clipPath id="clip0_1105_55">
<rect width="16" height="16" fill="white"/>
</clipPath>
</defs>
</svg>
