<?xml version="1.0" encoding="UTF-8"?>
<svg id="Layer_2" data-name="Layer 2" xmlns="http://www.w3.org/2000/svg" xmlns:xlink="http://www.w3.org/1999/xlink" viewBox="0 0 16 16">
  <defs>
    <style>
      .cls-1 {
        fill: #4c10dd;
        fill-rule: evenodd;
      }

      .cls-2 {
        fill: none;
      }

      .cls-3 {
        clip-path: url(#clippath);
      }
    </style>
    <clipPath id="clippath">
      <rect class="cls-2" width="16" height="16"/>
    </clipPath>
  </defs>
  <g id="Layer_1-2" data-name="Layer 1">
    <g class="cls-3">
      <g>
        <path class="cls-1" d="M5.53,2.5s.05.05.1.09c.17.14.47.29.9.43.85.28,2.08.47,3.48.47s2.62-.19,3.48-.47c.43-.14.73-.3.9-.43.05-.04.08-.07.1-.09-.02-.02-.05-.05-.1-.09-.17-.14-.47-.29-.9-.43-.85-.28-2.08-.47-3.48-.47s-2.62.19-3.48.47c-.43.14-.73.3-.9.43-.05.04-.08.07-.1.09ZM14.5,4.24c-.18.08-.36.15-.55.21-1.05.35-2.44.55-3.95.55s-2.9-.2-3.95-.55c-.19-.06-.38-.13-.55-.21v1.01c0,.41-.34.75-.75.75s-.75-.34-.75-.75v-2.75c0-.57.35-.99.7-1.27.36-.28.83-.51,1.35-.68,1.05-.35,2.44-.55,3.95-.55s2.9.2,3.95.55c.52.17.99.4,1.35.68.35.28.7.7.7,1.27v4c0,.51-.28.9-.58,1.17-.31.27-.71.49-1.14.66-.39.15-.82-.04-.97-.42-.15-.39.04-.82.42-.97.34-.14.57-.27.69-.38.05-.04.07-.07.08-.09v-2.23Z"/>
        <path class="cls-1" d="M1.53,9.5s.05.05.1.09c.17.14.47.29.9.43.85.28,2.08.47,3.48.47s2.62-.19,3.48-.47c.43-.14.73-.3.9-.43.05-.04.08-.07.1-.09-.02-.02-.05-.05-.1-.09-.17-.14-.47-.29-.9-.43-.85-.28-2.08-.47-3.48-.47s-2.62.19-3.48.47c-.43.14-.73.3-.9.43-.05.04-.08.07-.1.09ZM10.5,11.24c-.18.08-.36.15-.55.21-1.05.35-2.44.55-3.95.55s-2.9-.2-3.95-.55c-.19-.06-.38-.13-.55-.21v2.23s.05.06.13.12c.17.14.47.29.9.43.85.28,2.08.47,3.48.47s2.62-.19,3.48-.47c.43-.14.73-.3.9-.43.08-.06.11-.1.13-.12v-2.23ZM12,9.5v4c0,.57-.35.99-.7,1.27-.36.28-.83.51-1.35.68-1.05.35-2.44.55-3.95.55s-2.9-.2-3.95-.55c-.52-.17-.99-.4-1.35-.68-.35-.28-.7-.7-.7-1.27v-4c0-.57.35-.99.7-1.27.36-.28.83-.51,1.35-.68,1.05-.35,2.44-.55,3.95-.55s2.9.2,3.95.55c.52.17.99.4,1.35.68.35.28.7.7.7,1.27Z"/>
      </g>
    </g>
  </g>
</svg>