<svg width="16" height="16" viewBox="0 0 16 16" fill="none" xmlns="http://www.w3.org/2000/svg">
  <g clip-path="url(#clip0_137_77)">
    <path fill-rule="evenodd" clip-rule="evenodd" d="M0 2.75C0 1.23122 1.23122 0 2.75 0H13.25C14.7688 0 16 1.23122 16 2.75V13.25C16 14.7688 14.7688 16 13.25 16H2.75C1.23122 16 0 14.7688 0 13.25V2.75ZM2.75 1.5C2.05964 1.5 1.5 2.05964 1.5 2.75V13.25C1.5 13.9404 2.05964 14.5 2.75 14.5H13.25C13.9404 14.5 14.5 13.9404 14.5 13.25V2.75C14.5 2.05964 13.9404 1.5 13.25 1.5H2.75Z" fill="#FFFFFF" />
    <path fill-rule="evenodd" clip-rule="evenodd" d="M8 0.25C8.41421 0.25 8.75 0.585786 8.75 1V15C8.75 15.4142 8.41421 15.75 8 15.75C7.58579 15.75 7.25 15.4142 7.25 15V1C7.25 0.585786 7.58579 0.25 8 0.25Z" fill="#FFFFFF" />
  </g>
  <defs>
    <clipPath id="clip0_137_77">
      <rect width="16" height="16" fill="#FFFFFF" />
    </clipPath>
  </defs>
</svg>