<svg width="16" height="16" viewBox="0 0 16 16" fill="none" xmlns="http://www.w3.org/2000/svg">
<g clip-path="url(#clip0_1791_62)">
<path d="M6.61497 14.4751H2.49733C2.10021 14.4751 1.71936 14.3173 1.43856 14.0366C1.15775 13.7558 1 13.3749 1 12.9779V2.49723C1 2.10014 1.15775 1.71931 1.43856 1.43853C1.71936 1.15774 2.10021 1 2.49733 1H12.9786C13.3757 1 13.7566 1.15774 14.0374 1.43853C14.3182 1.71931 14.4759 2.10014 14.4759 2.49723V6.61462M9.45988 13.4279L10.2085 13.1285M9.98395 1V6.61462M10.1337 11.4055L9.45988 11.1809M11.1818 14.9997L11.4064 14.326M11.3315 10.2078L11.0321 9.45922M13.0535 10.133L13.2781 9.45922M13.4278 15L13.1283 14.2514M14.2513 11.3312L15 11.0317M15 13.2763L14.3262 13.0517M5.49198 1V14.4751M14.4759 12.2292C14.4759 13.4696 13.4704 14.4751 12.2299 14.4751C10.9895 14.4751 9.98395 13.4696 9.98395 12.2292C9.98395 10.9889 10.9895 9.98339 12.2299 9.98339C13.4704 9.98339 14.4759 10.9889 14.4759 12.2292Z" stroke="#1F2933" stroke-width="1.5" stroke-linecap="round"/>
</g>
<defs>
<clipPath id="clip0_1791_62">
<rect width="16" height="16" fill="white"/>
</clipPath>
</defs>
</svg>
