<?xml version="1.0" encoding="UTF-8"?>
<svg id="Layer_2" data-name="Layer 2" xmlns="http://www.w3.org/2000/svg" xmlns:xlink="http://www.w3.org/1999/xlink" viewBox="0 0 16 16">
  <defs>
    <style>
      .cls-1 {
        fill: #4c10dd;
        fill-rule: evenodd;
      }

      .cls-2 {
        fill: none;
      }

      .cls-3 {
        clip-path: url(#clippath);
      }
    </style>
    <clipPath id="clippath">
      <rect class="cls-2" width="16" height="16"/>
    </clipPath>
  </defs>
  <g id="Layer_1-2" data-name="Layer 1">
    <g class="cls-3">
      <g>
        <path class="cls-1" d="M0,2.75C0,1.23,1.23,0,2.75,0h6.75c1.38,0,2.5,1.12,2.5,2.5,0,.41-.34.75-.75.75s-.75-.34-.75-.75c0-.55-.45-1-1-1H2.75c-.69,0-1.25.56-1.25,1.25v6.75c0,.55.45,1,1,1,.41,0,.75.34.75.75s-.34.75-.75.75c-1.38,0-2.5-1.12-2.5-2.5V2.75Z"/>
        <path class="cls-1" d="M4,6.75c0-1.52,1.23-2.75,2.75-2.75h6.5c1.52,0,2.75,1.23,2.75,2.75v6.5c0,1.52-1.23,2.75-2.75,2.75h-6.5c-1.52,0-2.75-1.23-2.75-2.75v-6.5ZM6.75,5.5c-.69,0-1.25.56-1.25,1.25v6.5c0,.69.56,1.25,1.25,1.25h6.5c.69,0,1.25-.56,1.25-1.25v-6.5c0-.69-.56-1.25-1.25-1.25h-6.5Z"/>
      </g>
    </g>
  </g>
</svg>