<svg width="16" height="16" viewBox="0 0 16 16" fill="none" xmlns="http://www.w3.org/2000/svg">
  <g clip-path="url(#clip0_1_153)">
    <path fill-rule="evenodd" clip-rule="evenodd" d="M0 2.75C0 1.23122 1.23122 0 2.75 0H9.5C10.8807 0 12 1.11929 12 2.5C12 2.91421 11.6642 3.25 11.25 3.25C10.8358 3.25 10.5 2.91421 10.5 2.5C10.5 1.94772 10.0523 1.5 9.5 1.5H2.75C2.05964 1.5 1.5 2.05964 1.5 2.75V9.5C1.5 10.0523 1.94772 10.5 2.5 10.5C2.91421 10.5 3.25 10.8358 3.25 11.25C3.25 11.6642 2.91421 12 2.5 12C1.11929 12 0 10.8807 0 9.5V2.75Z" fill="#FFFFFF" />
    <path fill-rule="evenodd" clip-rule="evenodd" d="M4 6.75C4 5.23122 5.23122 4 6.75 4H13.25C14.7688 4 16 5.23122 16 6.75V13.25C16 14.7688 14.7688 16 13.25 16H6.75C5.23122 16 4 14.7688 4 13.25V6.75ZM6.75 5.5C6.05964 5.5 5.5 6.05964 5.5 6.75V13.25C5.5 13.9404 6.05964 14.5 6.75 14.5H13.25C13.9404 14.5 14.5 13.9404 14.5 13.25V6.75C14.5 6.05964 13.9404 5.5 13.25 5.5H6.75Z" fill="#FFFFFF" />
  </g>
  <defs>
    <clipPath id="clip0_1_153">
      <rect width="16" height="16" fill="#FFFFFF" />
    </clipPath>
  </defs>
</svg>