<svg width="16" height="16" viewBox="0 0 16 16" fill="none" xmlns="http://www.w3.org/2000/svg">
  <g clip-path="url(#clip0_301_4534)">
    <path fill-rule="evenodd" clip-rule="evenodd" d="M8 1.5C4.41015 1.5 1.5 4.41015 1.5 8C1.5 11.5899 4.41015 14.5 8 14.5C11.5899 14.5 14.5 11.5899 14.5 8C14.5 4.41015 11.5899 1.5 8 1.5ZM0 8C0 3.58172 3.58172 0 8 0C12.4183 0 16 3.58172 16 8C16 12.4183 12.4183 16 8 16C3.58172 16 0 12.4183 0 8Z" fill="#FFFFFF" />
    <path fill-rule="evenodd" clip-rule="evenodd" d="M7 8C7 7.44772 7.44772 7 8 7C8.55229 7 9 7.44772 9 8C9 8.55229 8.55229 9 8 9C7.44772 9 7 8.55229 7 8Z" fill="#FFFFFF" />
    <path fill-rule="evenodd" clip-rule="evenodd" d="M10 8C10 7.44772 10.4477 7 11 7C11.5523 7 12 7.44772 12 8C12 8.55229 11.5523 9 11 9C10.4477 9 10 8.55229 10 8Z" fill="#FFFFFF" />
    <path fill-rule="evenodd" clip-rule="evenodd" d="M4 8C4 7.44772 4.44772 7 5 7C5.55228 7 6 7.44772 6 8C6 8.55229 5.55228 9 5 9C4.44772 9 4 8.55229 4 8Z" fill="#FFFFFF" />
  </g>
  <defs>
    <clipPath id="clip0_301_4534">
      <rect width="16" height="16" fill="#FFFFFF" />
    </clipPath>
  </defs>
</svg>