<?xml version="1.0" encoding="UTF-8"?>
<svg id="Layer_2" data-name="Layer 2" xmlns="http://www.w3.org/2000/svg" xmlns:xlink="http://www.w3.org/1999/xlink" viewBox="0 0 16 16">
  <defs>
    <style>
      .cls-1 {
        fill: #6126ef;
        fill-rule: evenodd;
      }

      .cls-2 {
        fill: none;
      }

      .cls-3 {
        clip-path: url(#clippath);
      }
    </style>
    <clipPath id="clippath">
      <rect class="cls-2" width="16" height="16"/>
    </clipPath>
  </defs>
  <g id="Layer_1-2" data-name="Layer 1">
    <g class="cls-3">
      <g>
        <path class="cls-1" d="M.75,10c.41,0,.75.34.75.75v1.5c0,1.24,1.01,2.25,2.25,2.25h8.5c1.24,0,2.25-1.01,2.25-2.25v-1.5c0-.41.34-.75.75-.75s.75.34.75.75v1.5c0,2.07-1.68,3.75-3.75,3.75H3.75C1.68,16,0,14.32,0,12.25v-1.5c0-.41.34-.75.75-.75Z"/>
        <path class="cls-1" d="M8,0c.41,0,.75.34.75.75v9.5c0,.41-.34.75-.75.75s-.75-.34-.75-.75V.75c0-.41.34-.75.75-.75Z"/>
        <path class="cls-1" d="M4.24,6.2c.3-.28.78-.27,1.06.04l2.7,2.91,2.7-2.91c.28-.3.76-.32,1.06-.04.3.28.32.76.04,1.06l-3.25,3.5c-.14.15-.34.24-.55.24s-.41-.09-.55-.24l-3.25-3.5c-.28-.3-.27-.78.04-1.06Z"/>
      </g>
    </g>
  </g>
</svg>
