<?xml version="1.0" encoding="UTF-8"?>
<svg id="Layer_2" data-name="Layer 2" xmlns="http://www.w3.org/2000/svg" xmlns:xlink="http://www.w3.org/1999/xlink" viewBox="0 0 16 16">
  <defs>
    <style>
      .cls-1 {
        fill: #4c10dd;
        fill-rule: evenodd;
      }

      .cls-2 {
        fill: none;
      }

      .cls-3 {
        clip-path: url(#clippath);
      }
    </style>
    <clipPath id="clippath">
      <rect class="cls-2" width="16" height="16"/>
    </clipPath>
  </defs>
  <g id="Layer_1-2" data-name="Layer 1">
    <g class="cls-3">
      <g>
        <path class="cls-1" d="M10.51,1.18c.68-.68,1.79-.68,2.47,0l1.84,1.84c.68.68.68,1.79,0,2.47L5.53,14.78c-.1.1-.22.17-.36.2l-4.25,1c-.25.06-.52-.02-.7-.2-.18-.18-.26-.45-.2-.7l1-4.25c.03-.14.1-.26.2-.36L10.51,1.18ZM11.93,2.24c-.1-.1-.26-.1-.35,0L2.43,11.38l-.67,2.86,2.86-.67L13.76,4.43c.1-.1.1-.26,0-.35l-1.84-1.84Z"/>
        <path class="cls-1" d="M9,15.25c0-.41.34-.75.75-.75h5.5c.41,0,.75.34.75.75s-.34.75-.75.75h-5.5c-.41,0-.75-.34-.75-.75Z"/>
      </g>
    </g>
  </g>
</svg>