<svg width="16" height="16" viewBox="0 0 16 16" fill="none" xmlns="http://www.w3.org/2000/svg">
<g clip-path="url(#clip0_1_197)">
<path fill-rule="evenodd" clip-rule="evenodd" d="M10.5126 1.17687C11.196 0.493451 12.304 0.493453 12.9875 1.17687L14.8232 3.01266C15.5067 3.69607 15.5067 4.80411 14.8232 5.48753L5.53034 14.7804C5.43172 14.879 5.30756 14.9482 5.17179 14.9802L0.921794 15.9802C0.668961 16.0396 0.403347 15.9641 0.219685 15.7804C0.0360226 15.5968 -0.0395381 15.3311 0.019952 15.0783L1.01995 10.8283C1.0519 10.6925 1.12106 10.5684 1.21968 10.4698L10.5126 1.17687ZM11.9268 2.23753C11.8292 2.1399 11.6709 2.1399 11.5732 2.23753L2.43121 11.3796L1.75757 14.2425L4.62055 13.5689L13.7626 4.42687C13.8602 4.32924 13.8602 4.17095 13.7626 4.07332L11.9268 2.23753Z" fill="#1F2933"/>
<path fill-rule="evenodd" clip-rule="evenodd" d="M9 15.25C9 14.8358 9.33579 14.5 9.75 14.5H15.25C15.6642 14.5 16 14.8358 16 15.25C16 15.6642 15.6642 16 15.25 16H9.75C9.33579 16 9 15.6642 9 15.25Z" fill="#1F2933"/>
</g>
<defs>
<clipPath id="clip0_1_197">
<rect width="16" height="16" fill="white"/>
</clipPath>
</defs>
</svg>
