<svg width="16" height="16" viewBox="0 0 16 16" fill="none" xmlns="http://www.w3.org/2000/svg">
  <g clip-path="url(#clip0_1_266)">
    <path fill-rule="evenodd" clip-rule="evenodd" d="M1.80691 6.87713C1.56946 7.4782 1.5 7.89006 1.5 8C1.5 8.13998 1.60409 8.69323 1.94448 9.44804C2.27238 10.1752 2.78563 11.0111 3.52397 11.732C3.82033 12.0214 3.826 12.4962 3.53662 12.7926C3.24724 13.089 2.7724 13.0946 2.47603 12.8053C1.57647 11.9269 0.964712 10.9242 0.577092 10.0647C0.201961 9.23285 0 8.45143 0 8C0 7.60994 0.149293 6.99055 0.411836 6.32599C0.684283 5.63636 1.10865 4.82132 1.72187 4.03777C2.95822 2.45799 4.97359 1 8 1C9.96249 1 11.5129 1.61492 12.7017 2.49394C13.0347 2.74021 13.1051 3.20984 12.8588 3.54289C12.6125 3.87594 12.1429 3.94629 11.8098 3.70002C10.8674 3.00312 9.62696 2.5 8 2.5C5.52641 2.5 3.91678 3.66701 2.90313 4.96223C2.39135 5.61618 2.03447 6.30114 1.80691 6.87713ZM14.2949 5.32639C14.6669 5.14426 15.1161 5.29821 15.2983 5.67023C15.5368 6.15751 15.7087 6.61607 15.8222 7.00461C15.931 7.37705 16 7.73212 16 8C16 8.39006 15.8507 9.00945 15.5882 9.67401C15.3157 10.3636 14.8913 11.1787 14.2781 11.9622C13.0418 13.542 11.0264 15 8 15C7.20438 15 6.47329 14.8989 5.80404 14.7178C5.40422 14.6095 5.16783 14.1977 5.27605 13.7978C5.38428 13.398 5.79613 13.1616 6.19596 13.2699C6.73368 13.4154 7.33279 13.5 8 13.5C10.4736 13.5 12.0832 12.333 13.0969 11.0378C13.6087 10.3838 13.9655 9.69886 14.1931 9.12287C14.4305 8.5218 14.5 8.10994 14.5 8C14.5 7.94235 14.4763 7.7467 14.3824 7.42516C14.2932 7.11972 14.1524 6.74106 13.951 6.32977C13.7689 5.95774 13.9229 5.50851 14.2949 5.32639Z" fill="#FFFFFF" />
    <path fill-rule="evenodd" clip-rule="evenodd" d="M15.7803 0.21967C16.0732 0.512563 16.0732 0.987437 15.7803 1.28033L1.28033 15.7803C0.987437 16.0732 0.512563 16.0732 0.21967 15.7803C-0.0732233 15.4874 -0.0732233 15.0126 0.21967 14.7197L14.7197 0.21967C15.0126 -0.0732233 15.4874 -0.0732233 15.7803 0.21967Z" fill="#FFFFFF" />
    <path fill-rule="evenodd" clip-rule="evenodd" d="M9.06066 6.93934C8.47487 6.35355 7.52513 6.35355 6.93934 6.93934C6.35355 7.52513 6.35355 8.47487 6.93934 9.06066C7.23223 9.35355 7.23223 9.82843 6.93934 10.1213C6.64645 10.4142 6.17157 10.4142 5.87868 10.1213C4.70711 8.94975 4.70711 7.05025 5.87868 5.87868C7.05025 4.70711 8.94975 4.70711 10.1213 5.87868C10.4142 6.17157 10.4142 6.64645 10.1213 6.93934C9.82843 7.23223 9.35355 7.23223 9.06066 6.93934Z" fill="#FFFFFF" />
  </g>
  <defs>
    <clipPath id="clip0_1_266">
      <rect width="16" height="16" fill="#FFFFFF" />
    </clipPath>
  </defs>
</svg>