<svg width="16" height="16" viewBox="0 0 16 16" fill="none" xmlns="http://www.w3.org/2000/svg">
  <path fill-rule="evenodd" clip-rule="evenodd" d="M1.80691 6.87713C1.56946 7.4782 1.5 7.89006 1.5 8C1.5 8.10994 1.56946 8.5218 1.80691 9.12287C2.03447 9.69886 2.39135 10.3838 2.90313 11.0378C3.91678 12.333 5.52641 13.5 8 13.5C10.4736 13.5 12.0832 12.333 13.0969 11.0378C13.6087 10.3838 13.9655 9.69886 14.1931 9.12287C14.4305 8.5218 14.5 8.10994 14.5 8C14.5 7.89006 14.4305 7.4782 14.1931 6.87713C13.9655 6.30114 13.6087 5.61618 13.0969 4.96223C12.0832 3.66701 10.4736 2.5 8 2.5C5.52641 2.5 3.91678 3.66701 2.90313 4.96223C2.39135 5.61618 2.03447 6.30114 1.80691 6.87713ZM1.72187 4.03777C2.95822 2.45799 4.97359 1 8 1C11.0264 1 13.0418 2.45799 14.2781 4.03777C14.8913 4.82132 15.3157 5.63636 15.5882 6.32599C15.8507 6.99055 16 7.60994 16 8C16 8.39006 15.8507 9.00945 15.5882 9.67401C15.3157 10.3636 14.8913 11.1787 14.2781 11.9622C13.0418 13.542 11.0264 15 8 15C4.97359 15 2.95822 13.542 1.72187 11.9622C1.10865 11.1787 0.684283 10.3636 0.411836 9.67401C0.149293 9.00945 0 8.39006 0 8C0 7.60994 0.149293 6.99055 0.411836 6.32599C0.684283 5.63636 1.10865 4.82132 1.72187 4.03777Z" fill="#FFFFFF" />
  <path fill-rule="evenodd" clip-rule="evenodd" d="M8 6.5C7.17157 6.5 6.5 7.17157 6.5 8C6.5 8.82843 7.17157 9.5 8 9.5C8.82843 9.5 9.5 8.82843 9.5 8C9.5 7.17157 8.82843 6.5 8 6.5ZM5 8C5 6.34315 6.34315 5 8 5C9.65685 5 11 6.34315 11 8C11 9.65685 9.65685 11 8 11C6.34315 11 5 9.65685 5 8Z" fill="#FFFFFF" />
</svg>