<svg width="16" height="16" viewBox="0 0 16 16" fill="none" xmlns="http://www.w3.org/2000/svg">
<g clip-path="url(#clip0_807_77)">
<path fill-rule="evenodd" clip-rule="evenodd" d="M8 1.5C4.41015 1.5 1.5 4.41015 1.5 8C1.5 11.5899 4.41015 14.5 8 14.5C11.5899 14.5 14.5 11.5899 14.5 8C14.5 4.41015 11.5899 1.5 8 1.5ZM0 8C0 3.58172 3.58172 0 8 0C12.4183 0 16 3.58172 16 8C16 12.4183 12.4183 16 8 16C3.58172 16 0 12.4183 0 8Z" fill="#1F2933"/>
<path fill-rule="evenodd" clip-rule="evenodd" d="M6.48749 9.61371C6.4134 9.21236 6.03089 8.94296 5.6267 9.01032C5.21812 9.07842 4.9421 9.46484 5.0102 9.87342L5.75 9.75012C5.0102 9.87342 5.01012 9.87294 5.0102 9.87342L5.01053 9.87537L5.01088 9.87746L5.01169 9.8821L5.01371 9.89312C5.01523 9.90122 5.01713 9.91084 5.01946 9.92188C5.02412 9.94394 5.03052 9.97179 5.03911 10.0046C5.05625 10.07 5.08238 10.1562 5.1213 10.2563C5.19872 10.4554 5.33003 10.7177 5.54883 10.9803C6.00777 11.531 6.78365 12.0001 8 12.0001C9.21634 12.0001 9.99222 11.531 10.4512 10.9803C10.67 10.7177 10.8013 10.4554 10.8787 10.2563C10.9176 10.1562 10.9437 10.07 10.9609 10.0046C10.9695 9.97179 10.9759 9.94394 10.9805 9.92188C10.9829 9.91084 10.9848 9.90122 10.9863 9.89312L10.9883 9.8821L10.9891 9.87746L10.9895 9.87537L10.9896 9.87437C10.9897 9.87389 10.9898 9.87342 10.25 9.75012L10.9896 9.87437C11.0577 9.46579 10.7819 9.07842 10.3733 9.01032C9.9691 8.94296 9.58659 9.21236 9.5125 9.61372C9.51205 9.61568 9.51118 9.61935 9.50982 9.62455C9.50547 9.64115 9.49644 9.67213 9.48068 9.71266C9.44872 9.79483 9.39253 9.90754 9.29883 10.02C9.13277 10.2192 8.78366 10.5001 8 10.5001C7.21634 10.5001 6.86722 10.2192 6.70116 10.02C6.60746 9.90754 6.55127 9.79483 6.51931 9.71266C6.50355 9.67213 6.49452 9.64115 6.49017 9.62455C6.48881 9.61935 6.48794 9.61568 6.48749 9.61371C6.48749 9.61371 6.48749 9.61371 6.48749 9.61371Z" fill="#1F2933"/>
<path fill-rule="evenodd" clip-rule="evenodd" d="M5 6C5 5.44772 5.44772 5 6 5C6.55228 5 7 5.44772 7 6C7 6.55228 6.55228 7 6 7C5.44772 7 5 6.55228 5 6Z" fill="#1F2933"/>
<path fill-rule="evenodd" clip-rule="evenodd" d="M9 6C9 5.44772 9.44771 5 10 5C10.5523 5 11 5.44772 11 6C11 6.55228 10.5523 7 10 7C9.44771 7 9 6.55228 9 6Z" fill="#1F2933"/>
</g>
<defs>
<clipPath id="clip0_807_77">
<rect width="16" height="16" fill="white"/>
</clipPath>
</defs>
</svg>
