<svg width="16" height="16" viewBox="0 0 16 16" fill="none" xmlns="http://www.w3.org/2000/svg">
<g clip-path="url(#clip0_702_68)">
<path fill-rule="evenodd" clip-rule="evenodd" d="M0 0.75C0 0.335786 0.335786 0 0.75 0H15.25C15.6642 0 16 0.335786 16 0.75C16 4.15284 14.0799 7.28036 11 8.48344V14.25C11 15.2165 10.2165 16 9.25 16H6.75C5.7835 16 5 15.2165 5 14.25V8.48344C1.92013 7.28036 0 4.15284 0 0.75ZM1.53709 1.5C1.80624 4.20488 3.51855 6.48376 5.9694 7.23352C6.28468 7.32997 6.5 7.62101 6.5 7.95071V14.25C6.5 14.3881 6.61193 14.5 6.75 14.5H9.25C9.38807 14.5 9.5 14.3881 9.5 14.25V7.95071C9.5 7.62101 9.71532 7.32997 10.0306 7.23352C12.4815 6.48376 14.1938 4.20488 14.4629 1.5H1.53709Z" fill="#1F2933"/>
</g>
<defs>
<clipPath id="clip0_702_68">
<rect width="16" height="16" fill="white"/>
</clipPath>
</defs>
</svg>
