<?xml version="1.0" encoding="UTF-8"?>
<svg id="Layer_2" data-name="Layer 2" xmlns="http://www.w3.org/2000/svg" xmlns:xlink="http://www.w3.org/1999/xlink" viewBox="0 0 16 16">
  <defs>
    <style>
      .cls-1 {
        fill: #4c10dd;
        fill-rule: evenodd;
      }

      .cls-2 {
        fill: none;
      }

      .cls-3 {
        clip-path: url(#clippath);
      }
    </style>
    <clipPath id="clippath">
      <rect class="cls-2" width="16" height="16"/>
    </clipPath>
  </defs>
  <g id="Layer_1-2" data-name="Layer 1">
    <g class="cls-3">
      <path class="cls-1" d="M.07.43c.12-.26.39-.43.68-.43h14.5c.29,0,.55.17.68.43.12.26.09.57-.09.79l-4.56,5.7c-.18.22-.27.5-.27.78v6.55c0,.97-.78,1.75-1.75,1.75h-2.5c-.97,0-1.75-.78-1.75-1.75v-6.55c0-.28-.1-.56-.27-.78L.16,1.22C-.02.99-.05.68.07.43ZM2.31,1.5l3.59,4.48c.39.49.6,1.09.6,1.72v6.55c0,.14.11.25.25.25h2.5c.14,0,.25-.11.25-.25v-6.55c0-.62.21-1.23.6-1.72l3.59-4.48H2.31Z"/>
    </g>
  </g>
</svg>