<svg width="16" height="16" viewBox="0 0 16 16" fill="none" xmlns="http://www.w3.org/2000/svg">
  <g clip-path="url(#clip0_1_299)">
    <path fill-rule="evenodd" clip-rule="evenodd" d="M0.0740296 0.425108C0.19892 0.165259 0.461703 0 0.750007 0H15.25C15.5383 0 15.8011 0.165259 15.926 0.425108C16.0509 0.684958 16.0158 0.993394 15.8357 1.21852L11.2739 6.92069C11.0966 7.14233 11 7.41772 11 7.70156V14.25C11 15.2165 10.2165 16 9.25001 16H6.75001C5.78351 16 5.00001 15.2165 5.00001 14.25V7.70156C5.00001 7.41772 4.90341 7.14233 4.72609 6.92069L0.164355 1.21852C-0.0157466 0.993394 -0.0508604 0.684958 0.0740296 0.425108ZM2.31048 1.5L5.8974 5.98365C6.28749 6.47126 6.50001 7.07712 6.50001 7.70156V14.25C6.50001 14.3881 6.61194 14.5 6.75001 14.5H9.25001C9.38808 14.5 9.50001 14.3881 9.50001 14.25V7.70156C9.50001 7.07711 9.71253 6.47126 10.1026 5.98365L13.6895 1.5H2.31048Z" fill="#FFFFFF" />
  </g>
  <defs>
    <clipPath id="clip0_1_299">
      <rect width="16" height="16" fill="#FFFFFF" />
    </clipPath>
  </defs>
</svg>