<svg width="16" height="16" viewBox="0 0 16 16" fill="none" xmlns="http://www.w3.org/2000/svg">
  <g clip-path="url(#clip0_301_4555)">
    <path fill-rule="evenodd" clip-rule="evenodd" d="M0.75 1.22782e-10C1.16421 1.22782e-10 1.5 0.335786 1.5 0.75V15.25C1.5 15.6642 1.16421 16 0.75 16C0.335786 16 0 15.6642 0 15.25V0.75C0 0.335786 0.335786 1.22782e-10 0.75 1.22782e-10Z" fill="#FFFFFF" />
    <path fill-rule="evenodd" clip-rule="evenodd" d="M0.319302 0.135997C0.519447 -0.00439635 0.775458 -0.0384291 1.00533 0.0448006L15.5053 5.2948C15.7241 5.37402 15.8937 5.5503 15.9645 5.77197C16.0352 5.99364 15.9991 6.23559 15.8666 6.42691L15.25 6C15.8666 6.42691 15.8669 6.42657 15.8666 6.42691L15.8657 6.42831L15.8645 6.43001L15.8615 6.43431L15.8529 6.4464C15.846 6.45598 15.8368 6.46859 15.8254 6.48403C15.8024 6.51489 15.7702 6.55708 15.7286 6.60895C15.6454 6.71266 15.5244 6.8554 15.3644 7.02401C15.0448 7.3609 14.5675 7.80334 13.9235 8.24398C12.6307 9.12854 10.6731 10 8 10C5.60306 10 3.88931 10.4788 2.79104 10.9412C2.24079 11.1729 1.84232 11.4016 1.58783 11.5667C1.46055 11.6493 1.36924 11.716 1.31294 11.7591C1.28479 11.7807 1.26541 11.7964 1.25467 11.8053L1.24504 11.8134L1.24626 11.8123L1.24716 11.8115C1.24628 11.8123 1.24593 11.8126 1.24504 11.8134C1.02446 12.0072 0.710873 12.0546 0.442758 11.9342C0.173333 11.8132 0 11.5453 0 11.25V0.75C0 0.505524 0.119157 0.276391 0.319302 0.135997ZM1.5 9.88876C1.70918 9.78129 1.94531 9.66978 2.20896 9.55877C3.48569 9.0212 5.39694 8.5 8 8.5C10.3269 8.5 11.9943 7.74646 13.0765 7.00602C13.4224 6.76935 13.7093 6.53341 13.9388 6.32289L1.5 1.8192V9.88876ZM14.6352 5.57044C14.6351 5.57062 14.6346 5.57123 14.6339 5.57225L14.6352 5.57044ZM1.24504 11.8134C1.2445 11.8139 1.24451 11.8139 1.24504 11.8134V11.8134Z" fill="#FFFFFF" />
  </g>
  <defs>
    <clipPath id="clip0_301_4555">
      <rect width="16" height="16" fill="#FFFFFF" />
    </clipPath>
  </defs>
</svg>