<svg width="16" height="16" viewBox="0 0 16 16" fill="none" xmlns="http://www.w3.org/2000/svg">
  <g clip-path="url(#clip0_1_303)">
    <path fill-rule="evenodd" clip-rule="evenodd" d="M0 3.75C0 3.33579 0.335786 3 0.75 3H13.25C14.7688 3 16 4.23122 16 5.75V13.25C16 14.7688 14.7688 16 13.25 16H2.75C1.23122 16 0 14.7688 0 13.25V3.75ZM1.5 4.5V13.25C1.5 13.9404 2.05964 14.5 2.75 14.5H13.25C13.9404 14.5 14.5 13.9404 14.5 13.25V5.75C14.5 5.05964 13.9404 4.5 13.25 4.5H1.5Z" fill="#FFFFFF" />
    <path fill-rule="evenodd" clip-rule="evenodd" d="M0 2.75C0 1.23122 1.23122 0 2.75 0H6.81273C7.81908 0 8.74506 0.549689 9.22695 1.43316L10.1584 3.14086C10.3568 3.5045 10.2228 3.96007 9.85914 4.15842C9.4955 4.35677 9.03993 4.22278 8.84158 3.85914L7.9101 2.15143C7.69106 1.74986 7.27016 1.5 6.81273 1.5H2.75C2.05964 1.5 1.5 2.05964 1.5 2.75V7C1.5 7.41421 1.16421 7.75 0.75 7.75C0.335786 7.75 0 7.41421 0 7V2.75Z" fill="#FFFFFF" />
  </g>
  <defs>
    <clipPath id="clip0_1_303">
      <rect width="16" height="16" fill="#FFFFFF" />
    </clipPath>
  </defs>
</svg>