<svg width="16" height="16" viewBox="0 0 16 16" fill="none" xmlns="http://www.w3.org/2000/svg">
<g clip-path="url(#clip0_301_4568)">
<path fill-rule="evenodd" clip-rule="evenodd" d="M3 1.5C2.17157 1.5 1.5 2.17157 1.5 3C1.5 3.82843 2.17157 4.5 3 4.5C3.82843 4.5 4.5 3.82843 4.5 3C4.5 2.17157 3.82843 1.5 3 1.5ZM0 3C0 1.34315 1.34315 0 3 0C4.65685 0 6 1.34315 6 3C6 4.65685 4.65685 6 3 6C1.34315 6 0 4.65685 0 3Z" fill="#1F2933"/>
<path fill-rule="evenodd" clip-rule="evenodd" d="M2.75 4.75C3.16421 4.75 3.5 5.08579 3.5 5.5V10.5C3.5 10.9142 3.16421 11.25 2.75 11.25C2.33579 11.25 2 10.9142 2 10.5V5.5C2 5.08579 2.33579 4.75 2.75 4.75Z" fill="#1F2933"/>
<path fill-rule="evenodd" clip-rule="evenodd" d="M13.25 4.75C13.6642 4.75 14 5.08579 14 5.5V6.25C14 7.76878 12.7688 9 11.25 9H6.75C6.33579 9 6 8.66421 6 8.25C6 7.83579 6.33579 7.5 6.75 7.5H11.25C11.9404 7.5 12.5 6.94036 12.5 6.25V5.5C12.5 5.08579 12.8358 4.75 13.25 4.75Z" fill="#1F2933"/>
<path fill-rule="evenodd" clip-rule="evenodd" d="M13 1.5C12.1716 1.5 11.5 2.17157 11.5 3C11.5 3.82843 12.1716 4.5 13 4.5C13.8284 4.5 14.5 3.82843 14.5 3C14.5 2.17157 13.8284 1.5 13 1.5ZM10 3C10 1.34315 11.3431 0 13 0C14.6569 0 16 1.34315 16 3C16 4.65685 14.6569 6 13 6C11.3431 6 10 4.65685 10 3Z" fill="#1F2933"/>
<path fill-rule="evenodd" clip-rule="evenodd" d="M3 11.5C2.17157 11.5 1.5 12.1716 1.5 13C1.5 13.8284 2.17157 14.5 3 14.5C3.82843 14.5 4.5 13.8284 4.5 13C4.5 12.1716 3.82843 11.5 3 11.5ZM0 13C0 11.3431 1.34315 10 3 10C4.65685 10 6 11.3431 6 13C6 14.6569 4.65685 16 3 16C1.34315 16 0 14.6569 0 13Z" fill="#1F2933"/>
</g>
<defs>
<clipPath id="clip0_301_4568">
<rect width="16" height="16" fill="white"/>
</clipPath>
</defs>
</svg>
