<?xml version="1.0" encoding="UTF-8"?>
<svg id="Layer_2" data-name="Layer 2" xmlns="http://www.w3.org/2000/svg" xmlns:xlink="http://www.w3.org/1999/xlink" viewBox="0 0 16 16">
  <defs>
    <style>
      .cls-1 {
        fill: #4c10dd;
        fill-rule: evenodd;
      }

      .cls-2 {
        fill: none;
      }

      .cls-3 {
        clip-path: url(#clippath);
      }
    </style>
    <clipPath id="clippath">
      <rect class="cls-2" width="16" height="16"/>
    </clipPath>
  </defs>
  <g id="Layer_1-2" data-name="Layer 1">
    <g class="cls-3">
      <g>
        <path class="cls-1" d="M8,1.5c-3.59,0-6.5,2.91-6.5,6.5s2.91,6.5,6.5,6.5,6.5-2.91,6.5-6.5S11.59,1.5,8,1.5ZM0,8C0,3.58,3.58,0,8,0s8,3.58,8,8-3.58,8-8,8S0,12.42,0,8Z"/>
        <path class="cls-1" d="M8,5.5c-1.38,0-2.5,1.12-2.5,2.5s1.12,2.5,2.5,2.5,2.5-1.12,2.5-2.5-1.12-2.5-2.5-2.5ZM4,8c0-2.21,1.79-4,4-4s4,1.79,4,4-1.79,4-4,4-4-1.79-4-4Z"/>
        <path class="cls-1" d="M6.03,9.97c.29.29.29.77,0,1.06l-2.5,2.5c-.29.29-.77.29-1.06,0-.29-.29-.29-.77,0-1.06l2.5-2.5c.29-.29.77-.29,1.06,0Z"/>
        <path class="cls-1" d="M9.97,9.97c.29-.29.77-.29,1.06,0l2.5,2.5c.29.29.29.77,0,1.06s-.77.29-1.06,0l-2.5-2.5c-.29-.29-.29-.77,0-1.06Z"/>
        <path class="cls-1" d="M2.47,2.47c.29-.29.77-.29,1.06,0l2.5,2.5c.29.29.29.77,0,1.06-.29.29-.77.29-1.06,0l-2.5-2.5c-.29-.29-.29-.77,0-1.06Z"/>
        <path class="cls-1" d="M13.53,2.47c.29.29.29.77,0,1.06l-2.5,2.5c-.29.29-.77.29-1.06,0-.29-.29-.29-.77,0-1.06l2.5-2.5c.29-.29.77-.29,1.06,0Z"/>
      </g>
    </g>
  </g>
</svg>