<?xml version="1.0" encoding="UTF-8"?>
<svg id="Layer_2" data-name="Layer 2" xmlns="http://www.w3.org/2000/svg" viewBox="0 0 61.42 52.91">
  <defs>
    <style>
      .cls-1 {
        fill: #4c10dd;
      }
    </style>
  </defs>
  <g id="Layer_1-2" data-name="Layer 1">
    <path class="cls-1" d="M61.42,26.14v.53l-.16.04-15.19,26.19H15.42S0,26.48,0,26.48v-.15L15.38,0h30.73s15.14,26.09,15.14,26.09l.17.04ZM23.35,33.78l-2.25,3.65c2.16,2.15,5.04,3.07,8.08,3.03,6.04-.08,10.11-3.97,11.33-9.69s.3-14.15-5.52-17.14c-3.06-1.57-6.75-1.62-9.87-.3-3.73,1.57-5.74,5.2-5.41,9.14.3,3.74,2.77,6.62,6.4,7.51s7.43-.2,9.93-3.32c.26,2.09-.25,4.02-1.12,5.81-1.15,2.38-3.4,3.74-6.04,3.72-2.14-.01-4.02-.76-5.51-2.42Z"/>
    <path class="cls-1" d="M36.06,22.93c-1.85,2.69-5.11,3.9-8.23,2.93-2.2-.68-3.61-2.73-3.25-5.06.4-2.56,2.69-4.05,5.2-4.09,3.85-.07,5.72,2.54,6.28,6.22Z"/>
  </g>
</svg>