<svg width="16" height="16" viewBox="0 0 16 16" fill="none" xmlns="http://www.w3.org/2000/svg">
<g clip-path="url(#clip0_1_349)">
<path fill-rule="evenodd" clip-rule="evenodd" d="M1.61436 1.99452C1.95167 0.813939 3.03073 0 4.25855 0H11.7413C12.9692 0 14.0482 0.813937 14.3855 1.99452L15.9711 7.54396C16.0849 7.94224 15.8543 8.35735 15.456 8.47114C15.0577 8.58494 14.6426 8.35432 14.5288 7.95604L12.9433 2.4066C12.7899 1.86997 12.2994 1.5 11.7413 1.5H4.25855C3.70045 1.5 3.20997 1.86997 3.05665 2.4066L1.47109 7.95604C1.3573 8.35432 0.942184 8.58494 0.543908 8.47114C0.145632 8.35735 -0.0849872 7.94224 0.028806 7.54396L1.61436 1.99452Z" fill="#1F2933"/>
<path fill-rule="evenodd" clip-rule="evenodd" d="M-4.07454e-10 7.75C-4.07454e-10 7.33579 0.335786 7 0.75 7H5.17085C5.93871 7 6.49406 7.50182 6.8091 7.91219C7.08455 8.27099 7.51537 8.5 8 8.5C8.48463 8.5 8.91545 8.27099 9.1909 7.91219C9.50594 7.50182 10.0613 7 10.8291 7H15.25C15.6642 7 16 7.33579 16 7.75V13.25C16 14.7688 14.7688 16 13.25 16H2.75C1.23122 16 -4.07454e-10 14.7688 -4.07454e-10 13.25V7.75ZM1.5 8.5V13.25C1.5 13.9404 2.05964 14.5 2.75 14.5H13.25C13.9404 14.5 14.5 13.9404 14.5 13.25V8.5H10.8291C10.7494 8.5 10.5818 8.56363 10.3807 8.82561C9.8336 9.53829 8.97056 10 8 10C7.02944 10 6.1664 9.53829 5.61928 8.82561C5.41816 8.56363 5.25063 8.5 5.17085 8.5H1.5Z" fill="#1F2933"/>
</g>
<defs>
<clipPath id="clip0_1_349">
<rect width="16" height="16" fill="white"/>
</clipPath>
</defs>
</svg>
