<svg width="16" height="16" viewBox="0 0 16 16" fill="none" xmlns="http://www.w3.org/2000/svg">
<g clip-path="url(#clip0_1_352)">
<path fill-rule="evenodd" clip-rule="evenodd" d="M8 8C8.55229 8 9 8.44771 9 9V11C9 11.5523 8.55229 12 8 12C7.44772 12 7 11.5523 7 11V9C7 8.44771 7.44772 8 8 8Z" fill="#1F2933"/>
<path fill-rule="evenodd" clip-rule="evenodd" d="M7 5C7 4.44772 7.44772 4 8 4C8.55229 4 9 4.44772 9 5C9 5.55228 8.55229 6 8 6C7.44772 6 7 5.55228 7 5Z" fill="#1F2933"/>
<path fill-rule="evenodd" clip-rule="evenodd" d="M8 1.5C4.41015 1.5 1.5 4.41015 1.5 8C1.5 11.5899 4.41015 14.5 8 14.5C11.5899 14.5 14.5 11.5899 14.5 8C14.5 4.41015 11.5899 1.5 8 1.5ZM0 8C0 3.58172 3.58172 0 8 0C12.4183 0 16 3.58172 16 8C16 12.4183 12.4183 16 8 16C3.58172 16 0 12.4183 0 8Z" fill="#1F2933"/>
</g>
<defs>
<clipPath id="clip0_1_352">
<rect width="16" height="16" fill="white"/>
</clipPath>
</defs>
</svg>
