<svg width="16" height="16" viewBox="0 0 16 16" fill="none" xmlns="http://www.w3.org/2000/svg">
  <g clip-path="url(#clip0_1_364)">
    <path fill-rule="evenodd" clip-rule="evenodd" d="M7.46967 1.4697C9.41942 -0.480052 12.5806 -0.480051 14.5303 1.4697C16.4801 3.41944 16.4801 6.58061 14.5303 8.53036L13.2803 9.78036C12.9874 10.0732 12.5126 10.0732 12.2197 9.78036C11.9268 9.48746 11.9268 9.01259 12.2197 8.7197L13.4697 7.46969C14.8336 6.10573 14.8336 3.89432 13.4697 2.53036C12.1057 1.1664 9.89429 1.16639 8.53033 2.53036L7.28033 3.78036C6.98744 4.07325 6.51256 4.07325 6.21967 3.78036C5.92678 3.48746 5.92678 3.01259 6.21967 2.7197L7.46967 1.4697Z" fill="#FFFFFF" />
    <path fill-rule="evenodd" clip-rule="evenodd" d="M3.78029 6.21967C4.07319 6.51256 4.07319 6.98744 3.7803 7.28033L2.53029 8.53033C1.16633 9.89429 1.16633 12.1057 2.53029 13.4697C3.89426 14.8336 6.10567 14.8336 7.46963 13.4697L8.71963 12.2197C9.01253 11.9268 9.4874 11.9268 9.78029 12.2197C10.0732 12.5126 10.0732 12.9874 9.7803 13.2803L8.53029 14.5303C6.58055 16.4801 3.41938 16.4801 1.46963 14.5303C-0.480112 12.5806 -0.480113 9.41942 1.46963 7.46967L2.71963 6.21967C3.01253 5.92678 3.4874 5.92678 3.78029 6.21967Z" fill="#FFFFFF" />
    <path fill-rule="evenodd" clip-rule="evenodd" d="M10.7803 5.21967C11.0732 5.51256 11.0732 5.98744 10.7803 6.28033L6.28033 10.7803C5.98744 11.0732 5.51256 11.0732 5.21967 10.7803C4.92678 10.4874 4.92678 10.0126 5.21967 9.71967L9.71967 5.21967C10.0126 4.92678 10.4874 4.92678 10.7803 5.21967Z" fill="#FFFFFF" />
  </g>
  <defs>
    <clipPath id="clip0_1_364">
      <rect width="16" height="16" fill="#FFFFFF" />
    </clipPath>
  </defs>
</svg>