<svg width="16" height="16" viewBox="0 0 16 16" fill="none" xmlns="http://www.w3.org/2000/svg">
  <path fill-rule="evenodd" clip-rule="evenodd" d="M1 7.75C1 6.7835 1.7835 6 2.75 6H13.25C14.2165 6 15 6.7835 15 7.75V13.25C15 14.7688 13.7688 16 12.25 16H3.75C2.23122 16 1 14.7688 1 13.25V7.75ZM2.75 7.5C2.61193 7.5 2.5 7.61193 2.5 7.75V13.25C2.5 13.9404 3.05964 14.5 3.75 14.5H12.25C12.9404 14.5 13.5 13.9404 13.5 13.25V7.75C13.5 7.61193 13.3881 7.5 13.25 7.5H2.75Z" fill="#FFFFFF" />
  <path fill-rule="evenodd" clip-rule="evenodd" d="M8.00004 1.5C6.55788 1.5 5.75137 1.96804 5.28326 2.44772C4.88989 2.85081 4.68172 3.3913 4.58145 4.07559C4.49398 4.67247 4.49646 5.30604 4.49911 5.98463C4.49957 6.10261 4.50004 6.22195 4.50004 6.34269V6.5C4.50004 6.91421 4.16425 7.25 3.75004 7.25C3.33582 7.25 3.00004 6.91421 3.00004 6.5V6.34269C3.00004 6.23527 2.9995 6.12466 2.99896 6.01151C2.99572 5.3389 2.99204 4.57637 3.0973 3.8581C3.22265 3.00264 3.51271 2.11434 4.20973 1.40009C4.98528 0.605361 6.19121 0 8.00004 0C9.80886 0 11.0148 0.605361 11.7903 1.40009C12.4874 2.11434 12.7774 3.00264 12.9028 3.8581C13.008 4.57637 13.0044 5.3389 13.0011 6.0115C13.0006 6.12466 13 6.23527 13 6.34269V6.5C13 6.91421 12.6642 7.25 12.25 7.25C11.8358 7.25 11.5 6.91421 11.5 6.5V6.34269C11.5 6.22195 11.5005 6.1026 11.501 5.98462C11.5036 5.30603 11.5061 4.67247 11.4186 4.07559C11.3184 3.3913 11.1102 2.85081 10.7168 2.44772C10.2487 1.96804 9.44219 1.5 8.00004 1.5Z" fill="#FFFFFF" />
</svg>