<svg width="16" height="16" viewBox="0 0 16 16" fill="none" xmlns="http://www.w3.org/2000/svg">
<path fill-rule="evenodd" clip-rule="evenodd" d="M0 4.75C0 3.23122 1.23122 2 2.75 2H13.25C14.7688 2 16 3.23122 16 4.75V11.25C16 12.7688 14.7688 14 13.25 14H2.75C1.23122 14 0 12.7688 0 11.25V4.75ZM2.75 3.5C2.05964 3.5 1.5 4.05964 1.5 4.75V11.25C1.5 11.9404 2.05964 12.5 2.75 12.5H13.25C13.9404 12.5 14.5 11.9404 14.5 11.25V4.75C14.5 4.05964 13.9404 3.5 13.25 3.5H2.75Z" fill="#1F2933"/>
<path fill-rule="evenodd" clip-rule="evenodd" d="M4 5.75C4 5.33579 4.33579 5 4.75 5H11.25C11.6642 5 12 5.33579 12 5.75C12 6.16421 11.6642 6.5 11.25 6.5H4.75C4.33579 6.5 4 6.16421 4 5.75Z" fill="#1F2933"/>
<path fill-rule="evenodd" clip-rule="evenodd" d="M4 10.25C4 9.83579 4.33579 9.5 4.75 9.5H11.25C11.6642 9.5 12 9.83579 12 10.25C12 10.6642 11.6642 11 11.25 11H4.75C4.33579 11 4 10.6642 4 10.25Z" fill="#1F2933"/>
</svg>
