<?xml version="1.0" encoding="UTF-8"?>
<svg id="Layer_2" data-name="Layer 2" xmlns="http://www.w3.org/2000/svg" viewBox="0 0 16 14.5">
  <defs>
    <style>
      .cls-1 {
        fill: #4c10dd;
        fill-rule: evenodd;
      }
    </style>
  </defs>
  <g id="Layer_1-2" data-name="Layer 1">
    <path class="cls-1" d="M3.5,2.79c-1.18.86-2,2.2-2,4.21,0,.93.18,1.71.47,2.36.25.55.43,1.23.3,1.95l-.26,1.4c-.03.17.12.32.29.29l3.21-.6c.35-.07.7-.06,1.02,0,.49.08.98.11,1.47.11,1.64,0,3.28-.41,4.5-1.29,1.18-.86,2-2.2,2-4.21s-.82-3.35-2-4.21c-1.21-.88-2.86-1.29-4.5-1.29s-3.28.41-4.5,1.29ZM2.62,1.58c1.54-1.12,3.52-1.58,5.38-1.58s3.84.46,5.38,1.58c1.57,1.14,2.62,2.93,2.62,5.42s-1.05,4.28-2.62,5.42c-1.54,1.12-3.52,1.58-5.38,1.58-.57,0-1.14-.04-1.71-.13-.18-.03-.36-.03-.51,0l-3.21.6c-1.21.23-2.27-.83-2.04-2.04l.26-1.4c.06-.3,0-.66-.19-1.05-.39-.86-.61-1.85-.61-2.98C0,4.51,1.05,2.72,2.62,1.58Z"/>
    <path class="cls-1" d="M4,7c0-.55.45-1,1-1s1,.45,1,1-.45,1-1,1-1-.45-1-1Z"/>
    <path class="cls-1" d="M7,7c0-.55.45-1,1-1s1,.45,1,1-.45,1-1,1-1-.45-1-1Z"/>
    <path class="cls-1" d="M10,7c0-.55.45-1,1-1s1,.45,1,1-.45,1-1,1-1-.45-1-1Z"/>
  </g>
</svg>