<?xml version="1.0" encoding="UTF-8"?>
<svg id="Layer_2" data-name="Layer 2" xmlns="http://www.w3.org/2000/svg" xmlns:xlink="http://www.w3.org/1999/xlink" viewBox="0 0 16 16">
  <defs>
    <style>
      .cls-1 {
        fill: #4c10dd;
        fill-rule: evenodd;
      }

      .cls-2 {
        fill: none;
      }

      .cls-3 {
        clip-path: url(#clippath);
      }
    </style>
    <clipPath id="clippath">
      <rect class="cls-2" width="16" height="16"/>
    </clipPath>
  </defs>
  <g id="Layer_1-2" data-name="Layer 1">
    <g class="cls-3">
      <g>
        <path class="cls-1" d="M8,0c.22,0,.43.1.58.27l1.25,1.5c.19.22.23.53.1.8-.12.26-.39.43-.68.43h-2.5c-.29,0-.56-.17-.68-.43-.12-.26-.08-.57.1-.8l1.25-1.5c.14-.17.35-.27.58-.27Z"/>
        <path class="cls-1" d="M6.07,13.43c.12-.26.39-.43.68-.43h2.5c.29,0,.56.17.68.43.12.26.08.57-.1.8l-1.25,1.5c-.14.17-.35.27-.58.27s-.43-.1-.58-.27l-1.25-1.5c-.19-.22-.23-.53-.1-.8Z"/>
        <path class="cls-1" d="M13.43,6.07c.26-.12.57-.08.8.1l1.5,1.25c.17.14.27.35.27.58s-.1.43-.27.58l-1.5,1.25c-.22.19-.53.23-.8.1-.26-.12-.43-.39-.43-.68v-2.5c0-.29.17-.56.43-.68Z"/>
        <path class="cls-1" d="M2.57,6.07c.26.12.43.39.43.68v2.5c0,.29-.17.56-.43.68-.26.12-.57.08-.8-.1l-1.5-1.25c-.17-.14-.27-.35-.27-.58s.1-.43.27-.58l1.5-1.25c.22-.19.53-.23.8-.1Z"/>
        <path class="cls-1" d="M8,.25c.41,0,.75.34.75.75v14.25c0,.41-.34.75-.75.75s-.75-.34-.75-.75V1c0-.41.34-.75.75-.75Z"/>
        <path class="cls-1" d="M0,8c0-.41.34-.75.75-.75h14.25c.41,0,.75.34.75.75s-.34.75-.75.75H.75c-.41,0-.75-.34-.75-.75Z"/>
      </g>
    </g>
  </g>
</svg>