<?xml version="1.0" encoding="UTF-8"?>
<svg id="Layer_2" xmlns="http://www.w3.org/2000/svg" version="1.1" viewBox="0 0 150.3 154.9">
  <!-- Generator: Adobe Illustrator 30.3.0, SVG Export Plug-In . SVG Version: 2.1.3 Build 182)  -->
  <defs>
    <style>
      .st0 {
        fill: #4c10dd;
      }

      .st1 {
        fill: #dbcff8;
      }

      .st2 {
        fill: #8258e7;
      }
    </style>
  </defs>
  <g id="Layer_1-2">
    <path class="st1" d="M76.9,123.6c.3-.9,1.1-1,1.8-1.3,8.8-4.1,18.8-7.3,27.1-12.1,19-11,30.4-32.3,29.2-54.3l16.3,92.2c-.1,2.8-2.7,5-5.4,5.2-22.5-8.4-44.2-19-66.5-28-.8-.3-2.3-1.5-2.6-1.5h0s0-.2,0-.2Z"/>
    <path class="st0" d="M82.8.2c27.6,2.8,50.3,27.5,52.2,54.9,1.8,23.9-12,47.6-33.7,57.7-7.2,3.6-15.1,6.3-22.3,9.6-1.2.6-2.2,1.3-3.6,1.2-.8,0-1.6-.4-2.3-.8-4.3-2.2-8.9-4.1-13.4-6-8.4-3.5-16.6-7.1-23.4-13.4-11.2-10.1-18.5-24.2-19.7-39.3C14.1,32.1,36.5,5.5,67.8.3c4.8,0,10.2-.5,14.9,0h0ZM74.8,34.8c-3.7.8-5.5,4.9-8.7,6.6-3.6,2.1-10.1,1.9-11.3,6-1,3.5,1.8,8,1.5,11.6s-2.9,7.4-1.2,10.9c2.3,4.1,8.4,3.2,11.9,5.9,2.1,1.5,3.8,3.9,5.9,5.4,4.8,3.2,8.2-3,11.7-5.4,5.9-3.9,13.6-1.2,12-11.1-.8-3.3-1.7-7-.7-10.4,2.8-9-.7-9.8-8.5-12-4.8-1.2-7-8.2-12.4-7.5,0,0-.2,0-.2,0Z"/>
    <path class="st2" d="M74.9,123.8L5.4,153.3c-2.7-.1-5.3-2.4-5.4-5.2L16.8,53.1c-2.1,20,5.9,38.9,21.1,51.8,10.7,9.1,25,12.2,37,18.9h0Z"/>
  </g>
</svg>