<svg width="16" height="16" viewBox="0 0 16 16" fill="none" xmlns="http://www.w3.org/2000/svg">
<g clip-path="url(#clip0_301_4595)">
<path fill-rule="evenodd" clip-rule="evenodd" d="M6.99966 2C7.1987 1.9999 7.38963 2.07892 7.53038 2.21967L13.7804 8.46967C14.0731 8.76235 14.0733 9.2368 13.7809 9.52978L8.41787 14.904C6.95386 16.3711 4.57736 16.3723 3.11181 14.9068L1.10445 12.8994C-0.358935 11.4361 -0.360169 9.06382 1.10169 7.5989L6.46917 2.22022C6.60977 2.07933 6.80061 2.0001 6.99966 2ZM7.0006 3.81121L2.16346 8.65846C1.28634 9.53741 1.28708 10.9607 2.16511 11.8388L4.17247 13.8461C5.0518 14.7255 6.4777 14.7247 7.35611 13.8445L12.1899 9.00055L7.0006 3.81121Z" fill="#1F2933"/>
<path fill-rule="evenodd" clip-rule="evenodd" d="M13.7936 12.9379C13.5997 13.346 13.5 13.7972 13.5 14C13.5 14.2761 13.7239 14.5 14 14.5C14.2761 14.5 14.5 14.2761 14.5 14C14.5 13.7972 14.4003 13.346 14.2064 12.9379C14.1349 12.7873 14.0632 12.6703 14 12.5883C13.9368 12.6703 13.8651 12.7873 13.7936 12.9379ZM12.9704 11.4872C13.1862 11.2606 13.534 11 14 11C14.466 11 14.8138 11.2606 15.0296 11.4872C15.2538 11.7225 15.429 12.0157 15.5613 12.2943C15.8199 12.8387 16 13.5125 16 14C16 15.1046 15.1046 16 14 16C12.8954 16 12 15.1046 12 14C12 13.5125 12.1801 12.8387 12.4387 12.2943C12.571 12.0157 12.7462 11.7225 12.9704 11.4872Z" fill="#1F2933"/>
<path fill-rule="evenodd" clip-rule="evenodd" d="M7.75 0C8.16421 0 8.5 0.335786 8.5 0.75V8.25C8.5 8.66421 8.16421 9 7.75 9C7.33579 9 7 8.66421 7 8.25V0.75C7 0.335786 7.33579 0 7.75 0Z" fill="#1F2933"/>
</g>
<defs>
<clipPath id="clip0_301_4595">
<rect width="16" height="16" fill="white"/>
</clipPath>
</defs>
</svg>
