<svg width="16" height="16" viewBox="0 0 16 16" fill="none" xmlns="http://www.w3.org/2000/svg">
  <g clip-path="url(#clip0_301_4600)">
    <path fill-rule="evenodd" clip-rule="evenodd" d="M11.1688 0.52062C11.8522 -0.162799 12.9603 -0.162797 13.6437 0.52062L15.4795 2.35641C16.1629 3.03982 16.1629 4.14786 15.4795 4.83128L5.53034 14.7804C5.43172 14.879 5.30756 14.9482 5.17179 14.9802L0.921794 15.9802C0.668961 16.0396 0.403347 15.9641 0.219685 15.7804C0.0360226 15.5968 -0.0395381 15.3311 0.019952 15.0783L1.01995 10.8283C1.0519 10.6925 1.12106 10.5684 1.21968 10.4698L11.1688 0.52062ZM12.583 1.58128C12.4854 1.48365 12.3271 1.48365 12.2295 1.58128L2.43121 11.3796L1.75757 14.2425L4.62055 13.5689L14.4188 3.77062C14.5165 3.67299 14.5165 3.5147 14.4188 3.41707L12.583 1.58128Z" fill="#FFFFFF" />
    <path fill-rule="evenodd" clip-rule="evenodd" d="M9.49311 2.50873C9.786 2.21584 10.2609 2.21584 10.5538 2.50873L13.5538 5.50873C13.8467 5.80163 13.8467 6.2765 13.5538 6.56939C13.2609 6.86229 12.786 6.86229 12.4931 6.56939L9.49311 3.56939C9.20021 3.2765 9.20021 2.80163 9.49311 2.50873Z" fill="#FFFFFF" />
  </g>
  <defs>
    <clipPath id="clip0_301_4600">
      <rect width="16" height="16" fill="#FFFFFF" />
    </clipPath>
  </defs>
</svg>