<?xml version="1.0" encoding="UTF-8"?>
<svg id="Layer_2" data-name="Layer 2" xmlns="http://www.w3.org/2000/svg" xmlns:xlink="http://www.w3.org/1999/xlink" viewBox="0 0 16 16">
  <defs>
    <style>
      .cls-1 {
        fill: #4c10dd;
        fill-rule: evenodd;
      }

      .cls-2 {
        fill: none;
      }

      .cls-3 {
        clip-path: url(#clippath);
      }
    </style>
    <clipPath id="clippath">
      <rect class="cls-2" width="16" height="16"/>
    </clipPath>
  </defs>
  <g id="Layer_1-2" data-name="Layer 1">
    <g class="cls-3">
      <g>
        <path class="cls-1" d="M14.49,1.51c-1.68.09-3.28.76-4.53,1.9l-6.13,5.62,3.14,3.14,5.62-6.13c1.14-1.25,1.81-2.85,1.9-4.53ZM8.95,2.3C10.56.82,12.67,0,14.86,0h.39c.41,0,.75.34.75.75v.39c0,2.19-.82,4.3-2.3,5.92l-6.15,6.7c-.14.15-.33.24-.54.24-.2,0-.4-.07-.55-.22l-4.24-4.24c-.14-.14-.22-.34-.22-.55,0-.2.09-.4.24-.54l6.7-6.15Z"/>
        <path class="cls-1" d="M3.78,12.22c.29.29.29.77,0,1.06l-2.5,2.5c-.29.29-.77.29-1.06,0-.29-.29-.29-.77,0-1.06l2.5-2.5c.29-.29.77-.29,1.06,0Z"/>
        <path class="cls-1" d="M5.78,14.22c.29.29.29.77,0,1.06l-.5.5c-.29.29-.77.29-1.06,0-.29-.29-.29-.77,0-1.06l.5-.5c.29-.29.77-.29,1.06,0Z"/>
        <path class="cls-1" d="M1.78,10.22c.29.29.29.77,0,1.06l-.5.5c-.29.29-.77.29-1.06,0-.29-.29-.29-.77,0-1.06l.5-.5c.29-.29.77-.29,1.06,0Z"/>
        <path class="cls-1" d="M10.6,9.34c.29.16.44.5.37.83l-1.24,5.25c-.06.26-.26.47-.53.55-.26.07-.54,0-.74-.19l-2-2c-.29-.29-.29-.77,0-1.06l3.24-3.25c.24-.24.6-.29.9-.13ZM8.06,13.25l.52.52.32-1.36-.84.84Z"/>
        <path class="cls-1" d="M6.66,5.4c.15.29.1.65-.13.88l-3.25,3.25c-.15.15-.35.23-.55.22-.21,0-.4-.1-.54-.25L.19,7.25c-.18-.2-.24-.48-.15-.74.09-.26.3-.44.57-.5l5.25-1c.32-.06.65.09.8.39ZM2.19,7.24l.59.67.96-.96-1.56.3Z"/>
      </g>
    </g>
  </g>
</svg>