<svg width="16" height="16" viewBox="0 0 16 16" fill="none" xmlns="http://www.w3.org/2000/svg">
<g clip-path="url(#clip0_1119_1954)">
<path fill-rule="evenodd" clip-rule="evenodd" d="M16 7.99996C16 8.28404 15.8395 8.54373 15.5854 8.67078L1.08543 15.9208C0.798405 16.0643 0.451874 16.0093 0.223387 15.784C-0.00509766 15.5586 -0.0649054 15.2129 0.0746085 14.9239L3.4172 7.99996L0.0746085 1.07602C-0.0649054 0.787027 -0.00509766 0.441293 0.223387 0.215959C0.451874 -0.00937581 0.798405 -0.0643759 1.08543 0.079138L15.5854 7.32914C15.8395 7.45618 16 7.71588 16 7.99996ZM2.38144 2.40419L4.92544 7.6739C5.02488 7.8799 5.02488 8.12002 4.92544 8.32602L2.38144 13.5957L13.573 7.99996L2.38144 2.40419Z" fill="#1F2933"/>
<path fill-rule="evenodd" clip-rule="evenodd" d="M8.00002 7.99994C8.00002 8.41415 7.66424 8.74994 7.25002 8.74994H4.50002C4.08581 8.74994 3.75002 8.41415 3.75002 7.99994C3.75002 7.58573 4.08581 7.24994 4.50002 7.24994H7.25002C7.66424 7.24994 8.00002 7.58573 8.00002 7.99994Z" fill="#1F2933"/>
</g>
<defs>
<clipPath id="clip0_1119_1954">
<rect width="16" height="16" fill="white"/>
</clipPath>
</defs>
</svg>
