<svg width="16" height="16" viewBox="0 0 16 16" fill="none" xmlns="http://www.w3.org/2000/svg">
<g clip-path="url(#clip0_301_4614)">
<path d="M10.4246 16C10.0246 16 9.62456 15.9 9.32456 15.6L8.52456 14.8C8.22456 14.5 7.72456 14.5 7.42455 14.8L6.62456 15.6C6.12456 16 5.42455 16.1 4.92455 15.9L4.12456 15.5C3.52456 15.2 3.22456 14.6 3.22456 14L3.32456 12.9C3.32456 12.5 3.02456 12.1 2.62456 12L1.52456 11.8C0.924555 11.7 0.424555 11.2 0.224555 10.6L0.0245553 9.6C-0.0754447 9 0.124555 8.3 0.724555 8L1.62456 7.4C2.02456 7.1 2.12456 6.6 1.82456 6.2L1.22456 5.2C0.924555 4.6 1.02456 4 1.42456 3.5L2.02456 2.8C2.32456 2.2 3.02456 2 3.62456 2.2L4.72456 2.5C5.12456 2.6 5.52456 2.4 5.72456 2L6.12456 1C6.32456 0.4 6.92456 0 7.52456 0H8.42455C9.02456 0 9.62456 0.4 9.82456 1L10.3246 2C10.5246 2.4 10.9246 2.6 11.3246 2.5L12.4246 2.2C13.0246 2 13.6246 2.2 14.0246 2.7L14.6246 3.4C15.0246 4 15.0246 4.6 14.7246 5.2L14.1246 6.2C13.9246 6.6 14.0246 7.1 14.4246 7.4L15.3246 8C15.8246 8.4 16.1246 9 15.9246 9.6L15.7246 10.5C15.6246 11.1 15.1246 11.6 14.4246 11.7L13.3246 11.9C12.9246 12 12.6246 12.4 12.6246 12.8L12.7246 13.9C12.7246 14.5 12.4246 15.1 11.8246 15.4L11.0246 15.8C10.9246 15.9 10.7246 16 10.4246 16ZM3.22456 3.6L2.62456 4.4L3.22456 5.5C3.82456 6.6 3.52456 7.9 2.52456 8.6L1.62456 9.2L1.82456 10.2L2.92456 10.4C4.12456 10.6 5.02455 11.7 4.92455 12.9L4.72456 14L5.52456 14.5L6.42455 13.7C7.32455 12.9 8.72456 12.9 9.62456 13.7L10.4246 14.5L11.2246 14.1L11.1246 12.9C11.0246 11.7 11.9246 10.6 13.1246 10.4L14.2246 10.2L14.4246 9.3L13.5246 8.6C12.5246 7.9 12.2246 6.6 12.8246 5.5L13.4246 4.5L12.8246 3.7L11.7246 4C10.5246 4.4 9.32456 3.8 8.82456 2.6L8.42455 1.5H7.52456L7.12456 2.6C6.72456 3.7 5.42456 4.3 4.32456 4L3.22456 3.6Z" fill="#1F2933"/>
<path fill-rule="evenodd" clip-rule="evenodd" d="M9.12454 6.9C8.52454 6.3 7.62454 6.3 7.02454 6.9C6.42454 7.5 6.42454 8.4 7.02454 9C7.62454 9.6 8.52454 9.6 9.12454 9C9.62454 8.5 9.62454 7.5 9.12454 6.9ZM5.92454 5.9C7.12454 4.7 9.02454 4.7 10.1245 5.9C11.3245 7.1 11.3245 9 10.1245 10.1C8.92454 11.2 7.02454 11.3 5.92454 10.1C4.72454 8.9 4.72454 7.1 5.92454 5.9Z" fill="#1F2933"/>
</g>
<defs>
<clipPath id="clip0_301_4614">
<rect width="16" height="16" fill="white"/>
</clipPath>
</defs>
</svg>
