<svg width="16" height="16" viewBox="0 0 16 16" fill="none" xmlns="http://www.w3.org/2000/svg">
<g clip-path="url(#clip0_1_563)">
<path fill-rule="evenodd" clip-rule="evenodd" d="M6.13795 1.51088C6.25738 0.644983 6.99744 0 7.87154 0H8.12846C9.00256 0 9.74262 0.644983 9.86205 1.51088L9.94919 2.14263C9.96082 2.227 10.0359 2.35116 10.2148 2.42223C10.2791 2.44778 10.3429 2.47442 10.406 2.5021C10.5821 2.57924 10.7231 2.54532 10.7912 2.49419L11.0988 2.26353C11.7955 1.741 12.7704 1.81028 13.3862 2.42609L13.5739 2.61377C14.1897 3.22958 14.259 4.20449 13.7365 4.9012L13.5058 5.20875C13.4547 5.27692 13.4208 5.41792 13.4979 5.59396C13.5256 5.65714 13.5522 5.7209 13.5778 5.78521C13.6488 5.96406 13.773 6.03918 13.8574 6.05081L14.4891 6.13795C15.355 6.25738 16 6.99744 16 7.87154V8.12846C16 9.00256 15.355 9.74262 14.4891 9.86205L13.8574 9.94919C13.773 9.96082 13.6488 10.0359 13.5778 10.2148C13.5522 10.2791 13.5256 10.3429 13.4979 10.406C13.4208 10.5821 13.4547 10.7231 13.5058 10.7912L13.7365 11.0988C14.259 11.7955 14.1897 12.7704 13.5739 13.3862L13.3862 13.5739C12.7704 14.1897 11.7955 14.259 11.0988 13.7365L10.7912 13.5058C10.7231 13.4547 10.5821 13.4208 10.406 13.4979C10.3429 13.5256 10.2791 13.5522 10.2148 13.5778C10.0359 13.6488 9.96082 13.773 9.94919 13.8574L9.86205 14.4891C9.74262 15.355 9.00256 16 8.12846 16H7.87154C6.99744 16 6.25738 15.355 6.13795 14.4891L6.05081 13.8574C6.03918 13.773 5.96406 13.6488 5.78521 13.5778C5.7209 13.5522 5.65715 13.5256 5.59396 13.4979C5.41792 13.4208 5.27692 13.4547 5.20876 13.5058L4.90118 13.7365C4.20447 14.259 3.22956 14.1897 2.61375 13.5739L2.42607 13.3862C1.81026 12.7704 1.74098 11.7955 2.26351 11.0988L2.49419 10.7912C2.54532 10.7231 2.57923 10.5821 2.5021 10.406C2.47441 10.3428 2.44778 10.2791 2.42223 10.2148C2.35116 10.0359 2.227 9.96082 2.14263 9.94919L1.51088 9.86205C0.644982 9.74261 0 9.00256 0 8.12846V7.87154C0 6.99744 0.644983 6.25738 1.51088 6.13795L2.14263 6.05081C2.227 6.03917 2.35116 5.96406 2.42223 5.78521C2.44778 5.7209 2.47442 5.65715 2.5021 5.59396C2.57924 5.41793 2.54532 5.27692 2.49419 5.20876L2.26351 4.90118C1.74098 4.20447 1.81027 3.22956 2.42608 2.61375L2.61375 2.42607C3.22956 1.81026 4.20448 1.74098 4.90119 2.26351L5.20876 2.49419C5.27693 2.54532 5.41793 2.57923 5.59397 2.5021C5.65715 2.47441 5.7209 2.44778 5.78521 2.42223C5.96406 2.35116 6.03918 2.227 6.05081 2.14263L6.13795 1.51088ZM7.87154 1.5C7.74667 1.5 7.64094 1.59214 7.62388 1.71584L7.53674 2.34759C7.4372 3.06929 6.91647 3.58679 6.33914 3.8162C6.29101 3.83533 6.24328 3.85527 6.19597 3.876C5.62641 4.12556 4.89183 4.13149 4.30876 3.69419L4.00119 3.46351C3.90166 3.38886 3.76238 3.39876 3.67441 3.48674L3.48674 3.67441C3.39877 3.76238 3.38887 3.90165 3.46351 4.00118L3.6942 4.30876C4.13149 4.89182 4.12556 5.6264 3.876 6.19597C3.85527 6.24328 3.83533 6.291 3.81621 6.33914C3.58679 6.91647 3.06929 7.4372 2.34759 7.53674L1.71584 7.62388C1.59214 7.64094 1.5 7.74666 1.5 7.87154V8.12846C1.5 8.25333 1.59214 8.35906 1.71584 8.37612L2.34759 8.46326C3.06929 8.5628 3.58679 9.08353 3.8162 9.66086C3.83533 9.70899 3.85527 9.75672 3.876 9.80403C4.12556 10.3736 4.13149 11.1082 3.69419 11.6912L3.46351 11.9988C3.38886 12.0983 3.39876 12.2376 3.48673 12.3256L3.67441 12.5133C3.76238 12.6012 3.90165 12.6111 4.00118 12.5365L4.30876 12.3058C4.89182 11.8685 5.6264 11.8744 6.19597 12.124C6.24328 12.1447 6.29101 12.1647 6.33914 12.1838C6.91647 12.4132 7.4372 12.9307 7.53674 13.6524L7.62388 14.2842C7.64094 14.4079 7.74667 14.5 7.87154 14.5H8.12846C8.25333 14.5 8.35906 14.4079 8.37612 14.2842L8.46326 13.6524C8.5628 12.9307 9.08353 12.4132 9.66086 12.1838C9.709 12.1647 9.75673 12.1447 9.80404 12.124C10.3736 11.8744 11.1082 11.8685 11.6912 12.3058L11.9988 12.5365C12.0983 12.6111 12.2376 12.6012 12.3256 12.5132L12.5132 12.3256C12.6012 12.2376 12.6111 12.0983 12.5365 11.9988L12.3058 11.6912C11.8685 11.1082 11.8744 10.3736 12.124 9.80403C12.1447 9.75673 12.1647 9.709 12.1838 9.66086C12.4132 9.08353 12.9307 8.5628 13.6524 8.46326L14.2842 8.37612C14.4079 8.35906 14.5 8.25333 14.5 8.12846V7.87154C14.5 7.74667 14.4079 7.64094 14.2842 7.62388L13.6524 7.53674C12.9307 7.4372 12.4132 6.91647 12.1838 6.33914C12.1647 6.29101 12.1447 6.24328 12.124 6.19596C11.8744 5.6264 11.8685 4.89182 12.3058 4.30875L12.5365 4.0012C12.6111 3.90167 12.6012 3.7624 12.5132 3.67443L12.3256 3.48675C12.2376 3.39878 12.0983 3.38888 11.9988 3.46353L11.6912 3.69419C11.1082 4.13149 10.3736 4.12556 9.80403 3.876C9.75672 3.85527 9.70899 3.83533 9.66086 3.8162C9.08353 3.58679 8.5628 3.06929 8.46326 2.34759L8.37612 1.71584C8.35906 1.59214 8.25333 1.5 8.12846 1.5H7.87154Z" fill="#1F2933"/>
<path fill-rule="evenodd" clip-rule="evenodd" d="M8 7.5C7.72386 7.5 7.5 7.72386 7.5 8C7.5 8.27614 7.72386 8.5 8 8.5C8.27614 8.5 8.5 8.27614 8.5 8C8.5 7.72386 8.27614 7.5 8 7.5ZM6 8C6 6.89543 6.89543 6 8 6C9.10457 6 10 6.89543 10 8C10 9.10457 9.10457 10 8 10C6.89543 10 6 9.10457 6 8Z" fill="#1F2933"/>
</g>
<defs>
<clipPath id="clip0_1_563">
<rect width="16" height="16" fill="white"/>
</clipPath>
</defs>
</svg>
