<?xml version="1.0" encoding="UTF-8"?>
<svg id="Layer_2" data-name="Layer 2" xmlns="http://www.w3.org/2000/svg" xmlns:xlink="http://www.w3.org/1999/xlink" viewBox="0 0 16 16">
  <defs>
    <style>
      .cls-1 {
        fill: #4c10dd;
        fill-rule: evenodd;
      }

      .cls-2 {
        fill: none;
      }

      .cls-3 {
        clip-path: url(#clippath);
      }
    </style>
    <clipPath id="clippath">
      <rect class="cls-2" width="16" height="16"/>
    </clipPath>
  </defs>
  <g id="Layer_1-2" data-name="Layer 1">
    <g class="cls-3">
      <g>
        <path class="cls-1" d="M0,1.75C0,.78.78,0,1.75,0h12.5c.97,0,1.75.78,1.75,1.75v6.25c0,4.42-3.58,8-8,8S0,12.42,0,8V1.75ZM1.75,1.5c-.14,0-.25.11-.25.25v6.25c0,3.59,2.91,6.5,6.5,6.5s6.5-2.91,6.5-6.5V1.75c0-.14-.11-.25-.25-.25H1.75Z"/>
        <path class="cls-1" d="M4,6.75c0-.41.34-.75.75-.75h6.5c.41,0,.75.34.75.75v2.5c0,1.52-1.23,2.75-2.75,2.75h-2.5c-1.52,0-2.75-1.23-2.75-2.75v-2.5ZM5.5,7.5v1.75c0,.69.56,1.25,1.25,1.25h2.5c.69,0,1.25-.56,1.25-1.25v-1.75h-5Z"/>
        <path class="cls-1" d="M7.75,4.5c-.69,0-1.25.56-1.25,1.25v.75c0,.41-.34.75-.75.75s-.75-.34-.75-.75v-.75c0-1.52,1.23-2.75,2.75-2.75h.5c1.52,0,2.75,1.23,2.75,2.75v.75c0,.41-.34.75-.75.75s-.75-.34-.75-.75v-.75c0-.69-.56-1.25-1.25-1.25h-.5Z"/>
      </g>
    </g>
  </g>
</svg>