<svg width="16" height="16" viewBox="0 0 16 16" fill="none" xmlns="http://www.w3.org/2000/svg">
<g clip-path="url(#clip0_1_601)">
<path fill-rule="evenodd" clip-rule="evenodd" d="M0 0.75C0 0.335786 0.335786 0 0.75 0H3C3.34415 0 3.64414 0.234223 3.72761 0.568098L4.33558 3H15.25C15.4791 3 15.6957 3.10473 15.8379 3.28435C15.9802 3.46396 16.0325 3.69875 15.9801 3.92178L14.3429 10.8799C14.0506 12.1221 12.9421 13 11.666 13H7.53947C6.29171 13 5.20032 12.1599 4.88103 10.9537L3.02232 3.93192L2.41442 1.5H0.75C0.335786 1.5 0 1.16421 0 0.75ZM4.72436 4.5L6.33109 10.5699C6.47622 11.1181 6.97231 11.5 7.53947 11.5H11.666C12.246 11.5 12.7499 11.1009 12.8827 10.5363L14.303 4.5H4.72436Z" fill="#4c10dd"/>
<path fill-rule="evenodd" clip-rule="evenodd" d="M5 15C5 14.4477 5.44772 14 6 14C6.55228 14 7 14.4477 7 15C7 15.5523 6.55228 16 6 16C5.44772 16 5 15.5523 5 15Z" fill="#4c10dd"/>
<path fill-rule="evenodd" clip-rule="evenodd" d="M12 15C12 14.4477 12.4477 14 13 14C13.5523 14 14 14.4477 14 15C14 15.5523 13.5523 16 13 16C12.4477 16 12 15.5523 12 15Z" fill="#4c10dd"/>
</g>
<defs>
<clipPath id="clip0_1_601">
<rect width="16" height="16" fill="white"/>
</clipPath>
</defs>
</svg>
