<svg width="16" height="16" viewBox="0 0 16 16" fill="none" xmlns="http://www.w3.org/2000/svg">
<g clip-path="url(#clip0_301_4631)">
<path fill-rule="evenodd" clip-rule="evenodd" d="M3.40485 2.95593C2.26422 3.90465 1.5 5.37172 1.5 7.5C1.5 9.12374 1.94556 10.3548 2.64762 11.2614C3.00947 11.7287 3.21767 12.4368 2.9024 13.1105C2.7937 13.3428 2.67958 13.5639 2.56324 13.7729C2.48305 13.917 2.48408 14.1372 2.58969 14.3228C2.68975 14.4986 2.78953 14.506 2.84802 14.4943C3.83803 14.2961 4.90648 14.0064 5.77484 13.5958C6.09895 13.4425 6.46277 13.3815 6.82488 13.4274C7.20666 13.4758 7.59959 13.5 8 13.5C9.80731 13.5 11.4343 13.0096 12.5951 12.0441C13.7358 11.0954 14.5 9.62828 14.5 7.5C14.5 5.37172 13.7358 3.90465 12.5951 2.95593C11.4343 1.9904 9.80731 1.5 8 1.5C6.1927 1.5 4.56569 1.9904 3.40485 2.95593ZM2.44565 1.8027C3.94332 0.557011 5.94131 0 8 0C10.0587 0 12.0567 0.557011 13.5543 1.8027C15.0722 3.06518 16 4.97311 16 7.5C16 10.0269 15.0722 11.9348 13.5543 13.1973C12.0567 14.443 10.0587 15 8 15C7.53944 15 7.08336 14.9722 6.63609 14.9155C6.56398 14.9063 6.48761 14.918 6.41601 14.9518C5.38856 15.4376 4.18458 15.7565 3.1425 15.9651C2.28524 16.1368 1.61423 15.6414 1.286 15.0646C0.963321 14.4976 0.878567 13.7153 1.25261 13.0434C1.35308 12.8629 1.45101 12.6731 1.5438 12.4748C1.55359 12.4539 1.56116 12.4222 1.55207 12.371C1.54236 12.3164 1.51406 12.2475 1.46166 12.1798C0.530087 10.9769 0 9.41121 0 7.5C0 4.97311 0.927786 3.06518 2.44565 1.8027Z" fill="#1F2933"/>
</g>
<defs>
<clipPath id="clip0_301_4631">
<rect width="16" height="16" fill="white"/>
</clipPath>
</defs>
</svg>
