<svg width="16" height="16" viewBox="0 0 16 16" fill="none" xmlns="http://www.w3.org/2000/svg">
<g clip-path="url(#clip0_702_76)">
<path fill-rule="evenodd" clip-rule="evenodd" d="M0 2.75C0 1.23122 1.23122 0 2.75 0H13.25C14.7688 0 16 1.23122 16 2.75V13.25C16 14.7688 14.7688 16 13.25 16H2.75C1.23122 16 0 14.7688 0 13.25V2.75ZM2.75 1.5C2.05964 1.5 1.5 2.05964 1.5 2.75V13.25C1.5 13.9404 2.05964 14.5 2.75 14.5H13.25C13.9404 14.5 14.5 13.9404 14.5 13.25V2.75C14.5 2.05964 13.9404 1.5 13.25 1.5H2.75Z" fill="#1F2933"/>
<path fill-rule="evenodd" clip-rule="evenodd" d="M0.25 4.25C0.25 3.83579 0.585786 3.5 1 3.5H15C15.4142 3.5 15.75 3.83579 15.75 4.25C15.75 4.66421 15.4142 5 15 5H1C0.585786 5 0.25 4.66421 0.25 4.25Z" fill="#1F2933"/>
<path fill-rule="evenodd" clip-rule="evenodd" d="M0.25 7.75C0.25 7.33579 0.585786 7 1 7H15C15.4142 7 15.75 7.33579 15.75 7.75C15.75 8.16421 15.4142 8.5 15 8.5H1C0.585786 8.5 0.25 8.16421 0.25 7.75Z" fill="#1F2933"/>
<path fill-rule="evenodd" clip-rule="evenodd" d="M0.25 11.75C0.25 11.3358 0.585786 11 1 11H15C15.4142 11 15.75 11.3358 15.75 11.75C15.75 12.1642 15.4142 12.5 15 12.5H1C0.585786 12.5 0.25 12.1642 0.25 11.75Z" fill="#1F2933"/>
<path fill-rule="evenodd" clip-rule="evenodd" d="M5.25 3.5C5.66421 3.5 6 3.83579 6 4.25L6 15.25C6 15.6642 5.66421 16 5.25 16C4.83579 16 4.5 15.6642 4.5 15.25L4.5 4.25C4.5 3.83579 4.83579 3.5 5.25 3.5Z" fill="#1F2933"/>
<path fill-rule="evenodd" clip-rule="evenodd" d="M10.75 3.5C11.1642 3.5 11.5 3.83579 11.5 4.25V15.25C11.5 15.6642 11.1642 16 10.75 16C10.3358 16 10 15.6642 10 15.25V4.25C10 3.83579 10.3358 3.5 10.75 3.5Z" fill="#1F2933"/>
</g>
<defs>
<clipPath id="clip0_702_76">
<rect width="16" height="16" fill="white"/>
</clipPath>
</defs>
</svg>
