<svg width="16" height="16" viewBox="0 0 16 16" fill="none" xmlns="http://www.w3.org/2000/svg">
<g clip-path="url(#clip0_701_94)">
<path fill-rule="evenodd" clip-rule="evenodd" d="M1 10.75C1 8.67893 2.67893 7 4.75 7H11.25C13.3211 7 15 8.67893 15 10.75V12.25C15 12.6642 14.6642 13 14.25 13H1.75C1.33579 13 1 12.6642 1 12.25V10.75ZM4.75 8.5C3.50736 8.5 2.5 9.50736 2.5 10.75V11.5H13.5V10.75C13.5 9.50736 12.4926 8.5 11.25 8.5H4.75Z" fill="#4c10dd"/>
<path fill-rule="evenodd" clip-rule="evenodd" d="M5.95218 1.5C5.79587 1.5 5.6779 1.64183 5.70636 1.79552L6.73745 7.36343C6.81288 7.77072 6.54385 8.16204 6.13656 8.23746C5.72927 8.31289 5.33796 8.04386 5.26253 7.63657L4.23144 2.06866C4.03221 0.992801 4.85803 0 5.95218 0H10.0478C11.142 0 11.9678 0.992799 11.7685 2.06866L10.7375 7.63657C10.662 8.04386 10.2707 8.31289 9.86343 8.23746C9.45614 8.16204 9.18711 7.77072 9.26253 7.36343L10.2936 1.79552C10.3221 1.64183 10.2041 1.5 10.0478 1.5H5.95218Z" fill="#4c10dd"/>
<path fill-rule="evenodd" clip-rule="evenodd" d="M0 15.25C0 14.8358 0.335786 14.5 0.75 14.5H15.25C15.6642 14.5 16 14.8358 16 15.25C16 15.6642 15.6642 16 15.25 16H0.75C0.335786 16 0 15.6642 0 15.25Z" fill="#4c10dd"/>
</g>
<defs>
<clipPath id="clip0_701_94">
<rect width="16" height="16" fill="white"/>
</clipPath>
</defs>
</svg>
