<?xml version="1.0" encoding="UTF-8"?>
<svg id="Layer_2" data-name="Layer 2" xmlns="http://www.w3.org/2000/svg" xmlns:xlink="http://www.w3.org/1999/xlink" viewBox="0 0 16 16">
  <defs>
    <style>
      .cls-1 {
        fill: #4c10dd;
        fill-rule: evenodd;
      }

      .cls-2 {
        fill: none;
      }

      .cls-3 {
        clip-path: url(#clippath);
      }
    </style>
    <clipPath id="clippath">
      <rect class="cls-2" width="16" height="16"/>
    </clipPath>
  </defs>
  <g id="Layer_1-2" data-name="Layer 1">
    <g class="cls-3">
      <g>
        <path class="cls-1" d="M10,5c0-.55.45-1,1-1s1,.45,1,1-.45,1-1,1-1-.45-1-1Z"/>
        <path class="cls-1" d="M7.48.21c.14-.13.33-.21.52-.21h7.25c.41,0,.75.34.75.75v7.25c0,.2-.08.39-.22.53l-6.7,6.67c-1.1,1.09-2.88,1.06-3.95-.07L.74,10.45c-1.03-1.1-.99-2.82.1-3.86L7.48.21ZM8.3,1.5L1.88,7.67c-.49.47-.51,1.26-.05,1.76l4.39,4.68c.48.51,1.29.53,1.79.03l6.48-6.45V1.5h-6.2Z"/>
      </g>
    </g>
  </g>
</svg>