<?xml version="1.0" encoding="UTF-8"?>
<svg id="Layer_2" data-name="Layer 2" xmlns="http://www.w3.org/2000/svg" viewBox="0 0 15 16">
  <defs>
    <style>
      .cls-1 {
        fill: #4c10dd;
        fill-rule: evenodd;
      }
    </style>
  </defs>
  <g id="Layer_1-2" data-name="Layer 1">
    <path class="cls-1" d="M1.2,3.24c.14-.15.34-.24.55-.24h11.5c.21,0,.41.09.55.24.14.15.21.36.19.57l-.84,9.67c-.12,1.42-1.31,2.51-2.74,2.51h-5.83c-1.43,0-2.62-1.09-2.74-2.51L1,3.81c-.02-.21.05-.42.19-.57ZM2.57,4.5l.77,8.86c.06.65.6,1.14,1.25,1.14h5.83c.65,0,1.19-.5,1.25-1.14l.77-8.86H2.57Z"/>
    <path class="cls-1" d="M5.75,6c.41,0,.75.34.75.75v5.5c0,.41-.34.75-.75.75s-.75-.34-.75-.75v-5.5c0-.41.34-.75.75-.75Z"/>
    <path class="cls-1" d="M9.25,6c.41,0,.75.34.75.75v5.5c0,.41-.34.75-.75.75s-.75-.34-.75-.75v-5.5c0-.41.34-.75.75-.75Z"/>
    <path class="cls-1" d="M6.75,1.5c-.69,0-1.25.56-1.25,1.25v1c0,.41-.34.75-.75.75s-.75-.34-.75-.75v-1c0-1.52,1.23-2.75,2.75-2.75h1.5c1.52,0,2.75,1.23,2.75,2.75v1c0,.41-.34.75-.75.75s-.75-.34-.75-.75v-1c0-.69-.56-1.25-1.25-1.25h-1.5Z"/>
    <path class="cls-1" d="M0,3.75c0-.41.34-.75.75-.75h13.5c.41,0,.75.34.75.75s-.34.75-.75.75H.75c-.41,0-.75-.34-.75-.75Z"/>
  </g>
</svg>