<svg width="16" height="16" viewBox="0 0 16 16" fill="none" xmlns="http://www.w3.org/2000/svg">
  <path fill-rule="evenodd" clip-rule="evenodd" d="M1.19718 3.24316C1.33923 3.08822 1.53979 3 1.75 3H13.25C13.4602 3 13.6608 3.08822 13.8028 3.24316C13.9449 3.39811 14.0154 3.60555 13.9972 3.81497L13.156 13.4882C13.0325 14.9093 11.8428 16 10.4164 16H4.58364C3.15719 16 1.96755 14.9093 1.84398 13.4882L1.00282 3.81497C0.984612 3.60555 1.05512 3.39811 1.19718 3.24316ZM2.56805 4.5L3.33834 13.3583C3.39451 14.0042 3.93525 14.5 4.58364 14.5H10.4164C11.0648 14.5 11.6055 14.0042 11.6617 13.3583L12.432 4.5H2.56805Z" fill="#FFFFFF" />
  <path fill-rule="evenodd" clip-rule="evenodd" d="M5.75 6C6.16421 6 6.5 6.33579 6.5 6.75V12.25C6.5 12.6642 6.16421 13 5.75 13C5.33579 13 5 12.6642 5 12.25V6.75C5 6.33579 5.33579 6 5.75 6Z" fill="#FFFFFF" />
  <path fill-rule="evenodd" clip-rule="evenodd" d="M9.25 6C9.66421 6 10 6.33579 10 6.75V12.25C10 12.6642 9.66421 13 9.25 13C8.83579 13 8.5 12.6642 8.5 12.25V6.75C8.5 6.33579 8.83579 6 9.25 6Z" fill="#FFFFFF" />
  <path fill-rule="evenodd" clip-rule="evenodd" d="M6.75 1.5C6.05964 1.5 5.5 2.05964 5.5 2.75V3.75C5.5 4.16421 5.16421 4.5 4.75 4.5C4.33579 4.5 4 4.16421 4 3.75V2.75C4 1.23122 5.23122 0 6.75 0H8.25C9.76878 0 11 1.23122 11 2.75V3.75C11 4.16421 10.6642 4.5 10.25 4.5C9.83579 4.5 9.5 4.16421 9.5 3.75V2.75C9.5 2.05964 8.94036 1.5 8.25 1.5H6.75Z" fill="#FFFFFF" />
  <path fill-rule="evenodd" clip-rule="evenodd" d="M0 3.75C0 3.33579 0.335786 3 0.75 3H14.25C14.6642 3 15 3.33579 15 3.75C15 4.16421 14.6642 4.5 14.25 4.5H0.75C0.335786 4.5 0 4.16421 0 3.75Z" fill="#FFFFFF" />
</svg>