<svg width="16" height="16" viewBox="0 0 16 16" fill="none" xmlns="http://www.w3.org/2000/svg">
<g clip-path="url(#clip0_1_652)">
<path fill-rule="evenodd" clip-rule="evenodd" d="M6.78033 1.21967C7.07323 1.51256 7.07323 1.98744 6.78033 2.28033L1.28033 7.78033C0.987437 8.07322 0.512563 8.07322 0.21967 7.78033C-0.0732234 7.48744 -0.0732232 7.01256 0.21967 6.71967L5.71967 1.21967C6.01257 0.926777 6.48744 0.926777 6.78033 1.21967Z" fill="#6126ef"/>
<path fill-rule="evenodd" clip-rule="evenodd" d="M1.75 11.5C1.61193 11.5 1.5 11.6119 1.5 11.75V14.2502C1.5 14.3883 1.61193 14.5002 1.75 14.5002H2.25C2.38807 14.5002 2.5 14.3883 2.5 14.2502V11.75C2.5 11.6119 2.38807 11.5 2.25 11.5H1.75ZM0 11.75C0 10.7835 0.783502 10 1.75 10H2.25C3.2165 10 4 10.7835 4 11.75V14.2502C4 15.2167 3.2165 16.0002 2.25 16.0002H1.75C0.783503 16.0002 0 15.2167 0 14.2502V11.75Z" fill="#6126ef"/>
<path fill-rule="evenodd" clip-rule="evenodd" d="M7.75 8.5C7.61193 8.5 7.5 8.61193 7.5 8.75V14.2502C7.5 14.3883 7.61193 14.5002 7.75 14.5002H8.25C8.38807 14.5002 8.5 14.3883 8.5 14.2502V8.75C8.5 8.61193 8.38807 8.5 8.25 8.5H7.75ZM6 8.75C6 7.7835 6.7835 7 7.75 7H8.25C9.2165 7 10 7.7835 10 8.75V14.2502C10 15.2167 9.2165 16.0002 8.25 16.0002H7.75C6.7835 16.0002 6 15.2167 6 14.2502V8.75Z" fill="#6126ef"/>
<path fill-rule="evenodd" clip-rule="evenodd" d="M13.75 1.5C13.6119 1.5 13.5 1.61193 13.5 1.75V14.2502C13.5 14.3883 13.6119 14.5002 13.75 14.5002H14.25C14.3881 14.5002 14.5 14.3883 14.5 14.2502V1.75C14.5 1.61193 14.3881 1.5 14.25 1.5H13.75ZM12 1.75C12 0.783502 12.7835 0 13.75 0H14.25C15.2165 0 16 0.783502 16 1.75V14.2502C16 15.2167 15.2165 16.0002 14.25 16.0002H13.75C12.7835 16.0002 12 15.2167 12 14.2502V1.75Z" fill="#6126ef"/>
<path fill-rule="evenodd" clip-rule="evenodd" d="M3 0.75C3 0.335786 3.33579 0 3.75 0H7.25C7.66421 0 8 0.335786 8 0.75V4.25C8 4.66421 7.66421 5 7.25 5C6.83579 5 6.5 4.66421 6.5 4.25V1.5H3.75C3.33579 1.5 3 1.16421 3 0.75Z" fill="#6126ef"/>
</g>
<defs>
<clipPath id="clip0_1_652">
<rect width="16" height="16" fill="white"/>
</clipPath>
</defs>
</svg>
