<?xml version="1.0" encoding="UTF-8"?>
<svg id="Layer_2" data-name="Layer 2" xmlns="http://www.w3.org/2000/svg" viewBox="0 0 48.61 58.32">
  <defs>
    <style>
      .cls-1 {
        fill: #4c10dd;
      }
    </style>
  </defs>
  <g id="Layer_1-2" data-name="Layer 1">
    <path class="cls-1" d="M41.66,0h.15l.5.38,6.17,9.16c.21.31.18.73-.15.95l-9.33,6.13c-.31.21-.73.13-.94-.18l-6.22-9.24c-.19-.29-.07-.72.21-.91L41.66,0Z"/>
    <g>
      <path class="cls-1" d="M3.39,18.04c.38-.58,1.45-1.31,1.99-.85.12.1.25.45.22.63l-3.16,15.76c-1.82,9.09,3.54,17.95,12.06,21.29,10.94,4.29,23.79-1.85,26.21-13.5l5.61-27.03c.43-.49,1.44-1.24,1.94-.73.12.12.28.47.23.68l-5.67,27.49c-1.86,9.02-9.9,15.63-18.98,16.45-7.55.68-14.6-2.25-19.27-8.15C.62,45.07-.82,38.67.45,32.43l2.94-14.39Z"/>
      <path class="cls-1" d="M41.45,17.52c.51-.48,1.36-1.19,1.93-.76.15.11.32.53.27.79l-4.85,23.37c-2.05,9.89-12.61,15.46-22.16,12.61-8.38-2.5-13.98-10.89-12.23-19.57l3.87-19.27c.58-.44,1.39-1.18,1.95-.71.14.12.27.52.22.77l-3.92,19.42c-1.33,6.6,2.11,13.23,8.1,16.26,4.35,2.21,9.38,2.39,14.09.05,3.62-1.8,7.04-5.4,7.97-9.91l4.76-23.07Z"/>
      <path class="cls-1" d="M37,19.78c.43-.19,1.96,0,1.79.84l-4,19.37c-1.58,7.64-9.77,11.91-17.13,9.61-6.3-1.97-10.53-8.33-9.2-14.91l4.62-22.94c.11-.56.9-.95,1.4-.78.31.1.79.75.71,1.14l-4.59,22.65c-.97,4.77,1.34,9.56,5.59,11.9,3.22,1.77,6.99,2,10.6.25,2.65-1.29,5.23-3.96,5.93-7.35l3.93-19.13c.05-.26.2-.58.36-.65Z"/>
      <path class="cls-1" d="M16.41,16.06c.09-.43.38-.73.66-.75.68-.06,1.15.88,1.35,1.5l-3.82,19.26c-.76,3.83,2.33,7.25,5.93,7.84s7.45-1.74,8.23-5.55l4.65-22.76c.07-.36.33-.67.59-.71.73-.11,1.13.73,1.44,1.49l-4.65,22.67c-.65,3.17-3.22,5.59-5.93,6.53-3.35,1.16-6.78.45-9.32-1.75s-3.67-5.45-3.01-8.71l3.87-19.06Z"/>
      <path class="cls-1" d="M19.65,20.76c.08-.41.49-.68.77-.66.56.03,1.06.94,1.25,1.52l-3.01,14.93c-.33,1.65,1.08,3.13,2.54,3.36,1.65.26,3.22-.75,3.57-2.47l5.43-26.66c.07-.34.36-.66.62-.69.82-.11,1.42,1.39,1.38,1.62l-5.33,26.17c-.56,2.77-3.13,4.49-5.85,4.15s-5.02-2.85-4.46-5.66l3.1-15.6Z"/>
    </g>
  </g>
</svg>