<?xml version="1.0" encoding="UTF-8"?>
<svg id="Layer_2" xmlns="http://www.w3.org/2000/svg" xmlns:xlink="http://www.w3.org/1999/xlink" viewBox="0 0 102.24 124.62">
  <defs>
    <style>
      .cls-1 {
        mask: url(#mask-5);
      }

      .cls-2 {
        mask: url(#mask-1);
      }

      .cls-3 {
        fill: #fff;
      }

      .cls-4 {
        mask: url(#mask);
      }

      .cls-5 {
        mask: url(#mask-2-3);
      }

      .cls-6 {
        fill: #cbed69;
      }

      .cls-7 {
        mask: url(#mask-4);
      }

      .cls-8 {
        mask: url(#mask-3);
      }
    </style>
    <mask id="mask" x="-123.61" y="-123.61" width="927.09" height="401.74" maskUnits="userSpaceOnUse">
      <g id="mask-2">
        <rect id="path-1" class="cls-3" x="-123.61" y="-123.61" width="927.09" height="401.74"/>
      </g>
    </mask>
    <mask id="mask-1" x="-123.61" y="-123.61" width="927.09" height="401.74" maskUnits="userSpaceOnUse">
      <g id="mask-2-2" data-name="mask-2">
        <rect id="path-1-2" data-name="path-1" class="cls-3" x="-123.61" y="-123.61" width="927.09" height="401.74"/>
      </g>
    </mask>
    <mask id="mask-2-3" data-name="mask-2" x="-123.61" y="-123.61" width="927.09" height="401.74" maskUnits="userSpaceOnUse">
      <g id="mask-2-4" data-name="mask-2">
        <rect id="path-1-3" data-name="path-1" class="cls-3" x="-123.61" y="-123.61" width="927.09" height="401.74"/>
      </g>
    </mask>
    <mask id="mask-3" x="-123.61" y="-123.61" width="927.09" height="401.74" maskUnits="userSpaceOnUse">
      <g id="mask-2-5" data-name="mask-2">
        <rect id="path-1-4" data-name="path-1" class="cls-3" x="-123.61" y="-123.61" width="927.09" height="401.74"/>
      </g>
    </mask>
    <mask id="mask-4" x="-123.61" y="-123.61" width="927.09" height="401.74" maskUnits="userSpaceOnUse">
      <g id="mask-2-6" data-name="mask-2">
        <rect id="path-1-5" data-name="path-1" class="cls-3" x="-123.61" y="-123.61" width="927.09" height="401.74"/>
      </g>
    </mask>
    <mask id="mask-5" x="-123.61" y="-123.61" width="927.09" height="401.74" maskUnits="userSpaceOnUse">
      <g id="mask-2-7" data-name="mask-2">
        <rect id="path-1-6" data-name="path-1" class="cls-3" x="-123.61" y="-123.61" width="927.09" height="401.74"/>
      </g>
    </mask>
  </defs>
  <g id="Layer_1-2" data-name="Layer_1">
    <g id="Logo-_x2F_-Uptempo-_x2F_-Uptempo-logo-negative">
      <g class="cls-4">
        <path id="Vector" class="cls-6" d="M36.7,123.72c-9.23-1.86-17.56-6.47-24.07-13.33C2.33,99.56-2.06,84.36.91,69.7l6.2-31.04c.07-.41.31-.74.67-.98l1.68-1.12c.2-.13.4-.21.64-.24.51-.07,1.01.11,1.35.47.34.38.51.88.4,1.39l-6.5,32.46c-2.66,13.2,1.32,26.91,10.55,36.69,9.27,9.75,22.71,14.39,35.96,12.36,17.06-2.61,30.77-15.74,34.17-32.73l11.19-55.91c.07-.41.31-.75.67-.99l1.68-1.12c.2-.13.4-.2.64-.24.51-.07,1.01.11,1.35.47.33.38.51.88.4,1.39l-11.49,57.34c-3.78,18.82-19.01,33.44-37.91,36.32l-.04-.14h.04c-5.29.82-10.61.69-15.84-.36Z"/>
      </g>
      <g class="cls-2">
        <path id="Vector-2" data-name="Vector" class="cls-6" d="M38.38,115.16c-7.48-1.53-14.22-5.24-19.51-10.79-8.33-8.77-11.86-21.09-9.5-32.97l7.93-39.57c.07-.41.31-.74.64-.99l1.68-1.12c.2-.14.4-.2.64-.24.51-.07,1.01.11,1.34.48.34.36.51.88.4,1.39l-8.19,40.98c-2.08,10.43,1.01,21.26,8.33,28.98,7.32,7.71,17.93,11.33,28.41,9.75,13.44-2.07,24.3-12.43,26.99-25.83l9.5-47.39c.07-.41.31-.74.67-.99l1.68-1.12c.2-.13.4-.2.64-.24.51-.07,1.01.11,1.35.47.33.38.51.88.4,1.39l-9.77,48.81c-3.07,15.26-15.4,27.08-30.74,29.41l-.07-.14h.04c-4.28.66-8.6.55-12.84-.29Z"/>
      </g>
      <g class="cls-5">
        <path id="Vector-3" data-name="Vector" class="cls-6" d="M40.08,106.64c-5.73-1.15-10.92-4.03-14.93-8.25-6.36-6.7-9.1-16.14-7.28-25.25l9.63-48.11c.07-.4.31-.74.67-.99l.85-.54c.47-.31,1.05-.34,1.65-.11.13.04.24.13.31.24l.74,1.12c.24.34.31.74.24,1.15l-9.65,48.1c-1.52,7.65.74,15.6,6.1,21.22,5.36,5.65,13.14,8.32,20.83,7.14,9.88-1.49,17.83-9.1,19.78-18.95l8.06-40.28c.14-.65.64-1.12,1.28-1.22.44-.07.87.07,1.21.34.07,0,.14,0,.2-.04.51-.07,1.01.09,1.34.47.34.36.51.88.41,1.39l-8.06,40.28c-2.33,11.67-11.8,20.75-23.52,22.54l-.04-.04v.04c-3.27.51-6.58.41-9.83-.24Z"/>
      </g>
      <g class="cls-8">
        <path id="Vector-4" data-name="Vector" class="cls-6" d="M41.78,98.09c-3.98-.81-7.59-2.77-10.39-5.75-4.41-4.67-6.3-11.2-5.06-17.53l8.19-40.98c.2-.99,1.25-1.59,2.36-1.05.09.07.2.13.27.24l1.28,1.93c.24.34.31.74.24,1.15l-7.92,39.57c-.98,4.88.47,9.92,3.88,13.51,3.4,3.59,8.36,5.28,13.24,4.54,6.27-.95,11.35-5.78,12.6-12.05l9.77-48.81c.2-.99,1.25-1.59,2.35-1.05.11.07.2.14.27.24l1.28,1.93c.24.34.31.74.24,1.15l-9.5,47.39c-1.61,8.12-8.19,14.39-16.35,15.64l.07.13h.01c-2.26.33-4.59.29-6.85-.19Z"/>
      </g>
      <g class="cls-7">
        <path id="Vector-5" data-name="Vector" class="cls-6" d="M43.45,89.6c-2.73-.54-4.62-2.07-5.73-3.22-1.48-1.55-3.81-4.91-2.83-9.82l6.5-32.42c.2-.98,1.25-1.59,2.36-1.05.09.07.2.13.27.24l1.28,1.93c.24.34.31.75.24,1.15l-6.2,31.04c-.58,2.92.81,4.88,1.68,5.78.87.92,2.76,2.4,5.69,1.96,2.69-.4,4.85-2.5,5.39-5.18l11.49-57.34c.2-.99,1.25-1.59,2.35-1.05.11.07.2.14.27.24l1.28,1.93c.24.34.31.74.24,1.15l-11.19,55.91c-.91,4.54-4.59,8.05-9.14,8.77l-.09.04h0c-1.35.21-2.62.19-3.87-.06Z"/>
      </g>
      <g class="cls-1">
        <path id="Vector-6" data-name="Vector" class="cls-6" d="M88.84.57c-.39-.59-1.19-.75-1.78-.35l-19.81,13.24c-.59.39-.75,1.19-.35,1.79l13.17,19.89c.39.59,1.19.75,1.78.35l19.81-13.24c.59-.39.75-1.19.35-1.79L88.84.57Z"/>
      </g>
    </g>
  </g>
</svg>