<svg width="16" height="16" viewBox="0 0 16 16" fill="none" xmlns="http://www.w3.org/2000/svg">
<g clip-path="url(#clip0_117_54)">
<path fill-rule="evenodd" clip-rule="evenodd" d="M5.50005 1.5C4.39548 1.5 3.50005 2.39543 3.50005 3.5C3.50005 4.60457 4.39548 5.5 5.50005 5.5C6.60462 5.5 7.50005 4.60457 7.50005 3.5C7.50005 2.39543 6.60462 1.5 5.50005 1.5ZM2.00005 3.5C2.00005 1.567 3.56705 0 5.50005 0C7.43304 0 9.00005 1.567 9.00005 3.5C9.00005 5.433 7.43304 7 5.50005 7C3.56705 7 2.00005 5.433 2.00005 3.5ZM10 0.75C10 0.335786 10.3358 0 10.75 0C12.7744 0 14 1.66471 14 3.5C14 5.33529 12.7744 7 10.75 7C10.3358 7 10 6.66421 10 6.25C10 5.83579 10.3358 5.5 10.75 5.5C11.7632 5.5 12.5 4.70228 12.5 3.5C12.5 2.29772 11.7632 1.5 10.75 1.5C10.3358 1.5 10 1.16421 10 0.75ZM2.65777 12.0144C2.06236 12.7474 1.76432 13.6706 1.62049 14.3779C1.61617 14.3992 1.61847 14.4105 1.62007 14.4161C1.62202 14.423 1.62654 14.4331 1.63732 14.4451C1.65966 14.4699 1.70766 14.5 1.78173 14.5H7.25005C7.66426 14.5 8.00005 14.8358 8.00005 15.25C8.00005 15.6642 7.66426 16 7.25005 16H1.78173C0.81954 16 -0.0710939 15.1692 0.150574 14.0791C0.317303 13.2591 0.681676 12.0681 1.49347 11.0687C2.33 10.0388 3.6147 9.25 5.50005 9.25C6.20345 9.25 6.89438 9.3063 7.52253 9.55125C7.90844 9.70173 8.09929 10.1366 7.9488 10.5225C7.79831 10.9084 7.36348 11.0992 6.97757 10.9488C6.61228 10.8063 6.14558 10.75 5.50005 10.75C4.0957 10.75 3.22843 11.3118 2.65777 12.0144ZM13 10C13.4143 10 13.75 10.3358 13.75 10.75V12.25H15.25C15.6643 12.25 16 12.5858 16 13C16 13.4142 15.6643 13.75 15.25 13.75H13.75V15.25C13.75 15.6642 13.4143 16 13 16C12.5858 16 12.25 15.6642 12.25 15.25V13.75H10.75C10.3358 13.75 10 13.4142 10 13C10 12.5858 10.3358 12.25 10.75 12.25H12.25V10.75C12.25 10.3358 12.5858 10 13 10Z" fill="#1F2933"/>
</g>
<defs>
<clipPath id="clip0_117_54">
<rect width="16" height="16" fill="white"/>
</clipPath>
</defs>
</svg>
