<svg width="16" height="16" viewBox="0 0 16 16" fill="none" xmlns="http://www.w3.org/2000/svg">
<g clip-path="url(#clip0_1_671)">
<path fill-rule="evenodd" clip-rule="evenodd" d="M8 1.5C6.61929 1.5 5.5 2.61929 5.5 4C5.5 5.38071 6.61929 6.5 8 6.5C9.38071 6.5 10.5 5.38071 10.5 4C10.5 2.61929 9.38071 1.5 8 1.5ZM4 4C4 1.79086 5.79086 0 8 0C10.2091 0 12 1.79086 12 4C12 6.20914 10.2091 8 8 8C5.79086 8 4 6.20914 4 4Z" fill="#1F2933"/>
<path fill-rule="evenodd" clip-rule="evenodd" d="M3.83269 11.7162C2.91492 12.264 2.36081 12.9679 2.02243 13.6086C1.90292 13.8349 1.94064 14.0134 2.06187 14.1656C2.20301 14.3429 2.48403 14.5 2.8475 14.5H13.1525C13.516 14.5 13.797 14.3429 13.9381 14.1656C14.0594 14.0134 14.0971 13.8349 13.9776 13.6086C13.6392 12.9679 13.0851 12.264 12.1673 11.7162C11.2489 11.168 9.9227 10.75 8 10.75C6.0773 10.75 4.75105 11.168 3.83269 11.7162ZM3.06387 10.4282C4.25279 9.71852 5.85471 9.25 8 9.25C10.1453 9.25 11.7472 9.71852 12.9361 10.4282C14.1256 11.1382 14.8579 12.0635 15.304 12.9081C15.7177 13.6916 15.5823 14.5089 15.1115 15.1001C14.6607 15.6662 13.9309 16 13.1525 16H2.8475C2.06905 16 1.33931 15.6662 0.888473 15.1001C0.417732 14.5089 0.282285 13.6916 0.696041 12.9081C1.14209 12.0635 1.87437 11.1382 3.06387 10.4282Z" fill="#1F2933"/>
</g>
<defs>
<clipPath id="clip0_1_671">
<rect width="16" height="16" fill="white"/>
</clipPath>
</defs>
</svg>
