<svg width="16" height="16" viewBox="0 0 16 16" fill="none" xmlns="http://www.w3.org/2000/svg">
  <g clip-path="url(#clip0_1_692)">
    <path fill-rule="evenodd" clip-rule="evenodd" d="M2.65777 12.0144C2.06236 12.7474 1.76432 13.6706 1.62049 14.3779C1.61617 14.3992 1.61847 14.4105 1.62007 14.4161C1.62202 14.423 1.62654 14.4331 1.63732 14.4451C1.65966 14.4699 1.70766 14.5 1.78173 14.5H9.21836C9.29243 14.5 9.34043 14.4699 9.36278 14.4451C9.37355 14.4331 9.37807 14.423 9.38003 14.4161C9.38162 14.4105 9.38393 14.3992 9.3796 14.3779C9.23577 13.6706 8.93773 12.7474 8.34232 12.0144C7.77166 11.3118 6.90439 10.75 5.50005 10.75C4.0957 10.75 3.22843 11.3118 2.65777 12.0144ZM1.49347 11.0687C2.33 10.0388 3.6147 9.25 5.50005 9.25C7.38539 9.25 8.67009 10.0388 9.50663 11.0687C10.3184 12.0681 10.6828 13.2591 10.8495 14.0791C11.0712 15.1692 10.1806 16 9.21836 16H1.78173C0.819539 16 -0.0710938 15.1692 0.150574 14.0791C0.317303 13.2591 0.681676 12.0681 1.49347 11.0687Z" fill="#FFFFFF" />
    <path fill-rule="evenodd" clip-rule="evenodd" d="M11 10C11 9.58579 11.3358 9.25 11.75 9.25C13.0972 9.25 14.0357 9.96424 14.6503 10.8349C15.2493 11.6834 15.5753 12.719 15.7561 13.5334C16.0631 14.9163 14.9293 16 13.6769 16H12.75C12.3358 16 12 15.6642 12 15.25C12 14.8358 12.3358 14.5 12.75 14.5H13.6769C13.8951 14.5 14.0731 14.409 14.181 14.2877C14.2835 14.1727 14.3292 14.0272 14.2917 13.8585C14.1288 13.1249 13.8573 12.3125 13.4249 11.7C13.0082 11.1097 12.4816 10.75 11.75 10.75C11.3358 10.75 11 10.4142 11 10Z" fill="#FFFFFF" />
    <path fill-rule="evenodd" clip-rule="evenodd" d="M5.5 1.5C4.39543 1.5 3.5 2.39543 3.5 3.5C3.5 4.60457 4.39543 5.5 5.5 5.5C6.60457 5.5 7.5 4.60457 7.5 3.5C7.5 2.39543 6.60457 1.5 5.5 1.5ZM2 3.5C2 1.567 3.567 0 5.5 0C7.433 0 9 1.567 9 3.5C9 5.433 7.433 7 5.5 7C3.567 7 2 5.433 2 3.5Z" fill="#FFFFFF" />
    <path fill-rule="evenodd" clip-rule="evenodd" d="M10 0.75C10 0.335786 10.3358 0 10.75 0C12.7744 0 14 1.66471 14 3.5C14 5.33529 12.7744 7 10.75 7C10.3358 7 10 6.66421 10 6.25C10 5.83579 10.3358 5.5 10.75 5.5C11.7632 5.5 12.5 4.70228 12.5 3.5C12.5 2.29772 11.7632 1.5 10.75 1.5C10.3358 1.5 10 1.16421 10 0.75Z" fill="#FFFFFF" />
  </g>
  <defs>
    <clipPath id="clip0_1_692">
      <rect width="16" height="16" fill="#FFFFFF" />
    </clipPath>
  </defs>
</svg>