<?xml version="1.0" encoding="UTF-8"?>
<svg id="Layer_2" data-name="Layer 2" xmlns="http://www.w3.org/2000/svg" xmlns:xlink="http://www.w3.org/1999/xlink" viewBox="0 0 16 16">
  <defs>
    <style>
      .cls-1 {
        fill: #4c10dd;
        fill-rule: evenodd;
      }

      .cls-2 {
        fill: none;
      }

      .cls-3 {
        clip-path: url(#clippath);
      }
    </style>
    <clipPath id="clippath">
      <rect class="cls-2" width="16" height="16"/>
    </clipPath>
  </defs>
  <g id="Layer_1-2" data-name="Layer 1">
    <g class="cls-3">
      <g>
        <path class="cls-1" d="M.75,2c.41,0,.75.34.75.75v10.5c0,.69.56,1.25,1.25,1.25h10.5c.69,0,1.25-.56,1.25-1.25V4.25c0-.41.34-.75.75-.75s.75.34.75.75v9c0,1.52-1.23,2.75-2.75,2.75H2.75c-1.52,0-2.75-1.23-2.75-2.75V2.75c0-.41.34-.75.75-.75Z"/>
        <path class="cls-1" d="M11,9c0-.55.45-1,1-1s1,.45,1,1-.45,1-1,1-1-.45-1-1Z"/>
        <path class="cls-1" d="M0,2.5C0,1.12,1.12,0,2.5,0h8.75c1.52,0,2.75,1.23,2.75,2.75v.75h1.25c.41,0,.75.34.75.75s-.34.75-.75.75H2.5c-1.38,0-2.5-1.12-2.5-2.5ZM12.5,3.5v-.75c0-.69-.56-1.25-1.25-1.25H2.5c-.55,0-1,.45-1,1s.45,1,1,1h10Z"/>
      </g>
    </g>
  </g>
</svg>