<svg width="16" height="16" viewBox="0 0 16 16" fill="none" xmlns="http://www.w3.org/2000/svg">
  <g clip-path="url(#clip0_364_74)">
    <path fill-rule="evenodd" clip-rule="evenodd" d="M8 1.5C4.41015 1.5 1.5 4.41015 1.5 8C1.5 11.5899 4.41015 14.5 8 14.5C11.5899 14.5 14.5 11.5899 14.5 8C14.5 4.41015 11.5899 1.5 8 1.5ZM0 8C0 3.58172 3.58172 0 8 0C12.4183 0 16 3.58172 16 8C16 12.4183 12.4183 16 8 16C3.58172 16 0 12.4183 0 8Z" fill="#FFFFFF" />
    <path fill-rule="evenodd" clip-rule="evenodd" d="M5.25 0.75C5.66421 0.75 6 1.08579 6 1.5V5.25C6 7.32107 4.32107 9 2.25 9H1C0.585786 9 0.25 8.66421 0.25 8.25C0.25 7.83579 0.585786 7.5 1 7.5H2.25C3.49264 7.5 4.5 6.49264 4.5 5.25V1.5C4.5 1.08579 4.83579 0.75 5.25 0.75Z" fill="#FFFFFF" />
    <path fill-rule="evenodd" clip-rule="evenodd" d="M12 5.5C11.3515 5.5 10.7338 6.05261 10.5614 6.89385C10.3729 7.8137 10.0511 8.47511 9.63883 8.97118C9.22972 9.46351 8.7694 9.74544 8.40329 9.95111C8.33871 9.98739 8.27974 10.0202 8.22568 10.0502C7.93951 10.2094 7.79078 10.292 7.67453 10.4119C7.59498 10.494 7.50004 10.6257 7.50004 11C7.50004 12.0913 7.29587 13.0406 7.09341 13.7155C6.99183 14.0541 6.88965 14.3271 6.81139 14.5183C6.77222 14.6141 6.73893 14.6897 6.71453 14.7431C6.70233 14.7698 6.69234 14.7911 6.68494 14.8065L6.67583 14.8254L6.67281 14.8315L6.6717 14.8337L6.67125 14.8346C6.67115 14.8348 6.67086 14.8354 6.00004 14.5L6.67125 14.8346C6.486 15.2051 6.03512 15.3561 5.66463 15.1708C5.29469 14.9858 5.14442 14.5364 5.32842 14.1662C5.32857 14.1659 5.32872 14.1656 5.32887 14.1653C5.32885 14.1653 5.3289 14.1652 5.32887 14.1653L5.33199 14.1588C5.33557 14.1513 5.3417 14.1384 5.35 14.1202C5.36662 14.0838 5.39192 14.0265 5.42307 13.9504C5.48544 13.7979 5.57076 13.5709 5.65667 13.2845C5.82921 12.7094 6.00004 11.9087 6.00004 11C6.00004 10.2993 6.20555 9.7721 6.59768 9.36771C6.88406 9.07239 7.26288 8.86552 7.54061 8.71386C7.5863 8.68891 7.62925 8.66546 7.6686 8.64335C7.98751 8.46419 8.25428 8.29035 8.48516 8.01252C8.71291 7.73843 8.9439 7.31529 9.09197 6.59272C9.36307 5.2698 10.4395 4 12 4H14C14.4143 4 14.75 4.33579 14.75 4.75C14.75 5.16421 14.4143 5.5 14 5.5H12Z" fill="#FFFFFF" />
  </g>
  <defs>
    <clipPath id="clip0_364_74">
      <rect width="16" height="16" fill="#FFFFFF" />
    </clipPath>
  </defs>
</svg>