<?xml version="1.0" encoding="UTF-8"?>
<svg id="Layer_2" data-name="Layer 2" xmlns="http://www.w3.org/2000/svg" xmlns:xlink="http://www.w3.org/1999/xlink" viewBox="0 0 16 16">
  <defs>
    <style>
      .cls-1 {
        fill: #4c10dd;
        fill-rule: evenodd;
      }

      .cls-2 {
        fill: none;
      }

      .cls-3 {
        clip-path: url(#clippath);
      }
    </style>
    <clipPath id="clippath">
      <rect class="cls-2" width="16" height="16"/>
    </clipPath>
  </defs>
  <g id="Layer_1-2" data-name="Layer 1">
    <g class="cls-3">
      <path class="cls-1" d="M11,1.5c-1.93,0-3.5,1.57-3.5,3.5,0,.54.12,1.05.34,1.51.14.29.08.63-.15.85L1.69,13.37c-.26.26-.26.68,0,.94.26.26.68.26.94,0l6-6c.23-.23.57-.28.85-.15.46.22.97.34,1.51.34,1.93,0,3.5-1.57,3.5-3.5,0-.13,0-.26-.02-.39l-1.47,1.47c-.68.68-1.79.68-2.47,0l-.6-.6c-.68-.68-.68-1.79,0-2.47l1.48-1.48c-.14-.02-.27-.02-.42-.02ZM6,5c0-2.76,2.24-5,5-5,.77,0,1.5.18,2.16.49.22.11.37.31.42.55.04.24-.04.48-.21.66l-2.37,2.37c-.1.1-.1.26,0,.35l.6.6c.1.1.26.1.35,0l2.36-2.36c.17-.17.42-.25.66-.21.24.04.45.2.55.42.31.65.48,1.37.48,2.13,0,2.76-2.24,5-5,5-.58,0-1.14-.1-1.66-.28l-5.65,5.65c-.85.85-2.22.85-3.06,0-.85-.85-.85-2.22,0-3.06l5.65-5.65c-.18-.52-.28-1.08-.28-1.66Z"/>
    </g>
  </g>
</svg>