<svg width="16" height="16" viewBox="0 0 16 16" fill="none" xmlns="http://www.w3.org/2000/svg">
  <g clip-path="url(#clip0_1_720)">
    <path fill-rule="evenodd" clip-rule="evenodd" d="M7 1.5C3.96243 1.5 1.5 3.96243 1.5 7C1.5 10.0376 3.96243 12.5 7 12.5C10.0376 12.5 12.5 10.0376 12.5 7C12.5 3.96243 10.0376 1.5 7 1.5ZM0 7C0 3.13401 3.13401 0 7 0C10.866 0 14 3.13401 14 7C14 10.866 10.866 14 7 14C3.13401 14 0 10.866 0 7Z" fill="#FFFFFF" />
    <path fill-rule="evenodd" clip-rule="evenodd" d="M10.9697 10.9697C11.2626 10.6768 11.7374 10.6768 12.0303 10.9697L15.7803 14.7197C16.0732 15.0126 16.0732 15.4874 15.7803 15.7803C15.4874 16.0732 15.0126 16.0732 14.7197 15.7803L10.9697 12.0303C10.6768 11.7374 10.6768 11.2626 10.9697 10.9697Z" fill="#FFFFFF" />
    <path fill-rule="evenodd" clip-rule="evenodd" d="M4 7C4 6.58579 4.33579 6.25 4.75 6.25H9.25C9.66421 6.25 10 6.58579 10 7C10 7.41421 9.66421 7.75 9.25 7.75H4.75C4.33579 7.75 4 7.41421 4 7Z" fill="#FFFFFF" />
  </g>
  <defs>
    <clipPath id="clip0_1_720">
      <rect width="16" height="16" fill="#FFFFFF" />
    </clipPath>
  </defs>
</svg>